<svg xmlns="http://www.w3.org/2000/svg" xmlns:xlink="http://www.w3.org/1999/xlink" width="43.12" height="28.852" viewBox="0 0 43.12 28.852">
  <defs>
    <clipPath id="clip-path">
      <rect id="Rectángulo_781" data-name="Rectángulo 781" width="43.12" height="28.852" fill="none"/>
    </clipPath>
  </defs>
  <g id="Grupo_1464" data-name="Grupo 1464" transform="translate(0 0)">
    <g id="Grupo_1450" data-name="Grupo 1450" transform="translate(0 0)" clip-path="url(#clip-path)">
      <path id="Trazado_8278" data-name="Trazado 8278" d="M34.647,19.046c-2.527,0-12.783-.822-13.219-.857l.146-1.816c.1.008,10.619.85,13.073.85,2.868,0,6.608-1.485,6.651-2.19-.309-1.115-6.475-4.227-8.454-4.227H8.28a.907.907,0,0,1-.777-.438L3.345,3.535H2.113l2.081,7.452a.912.912,0,0,1-.552,1.1.917.917,0,0,0-.466.885.78.78,0,0,0,.512.776c.568.163,7.038,1.231,10.979,1.862l-.289,1.8C11.9,17.008,3.756,15.693,3.1,15.468A2.572,2.572,0,0,1,1.353,13a2.838,2.838,0,0,1,.9-2.171L.033,2.869A.912.912,0,0,1,.91,1.713H3.859a.9.9,0,0,1,.777.438L8.792,8.984H32.844c2.313,0,10.276,3.434,10.276,6.049,0,2.779-6.14,4.013-8.473,4.013" transform="translate(0 1.004)" fill="#12284c"/>
      <path id="Trazado_8279" data-name="Trazado 8279" d="M8.455,23.462a.925.925,0,0,1-.286-.044l-2.947-.969a.911.911,0,0,1-.449-1.407L13.228,9.564a.932.932,0,0,1,.826-.366l7.25.736a.91.91,0,0,1,.523,1.577L9.071,23.222a.91.91,0,0,1-.615.24M6.986,21.11l1.245.409L19.1,11.542l-4.712-.479Z" transform="translate(2.694 5.389)" fill="#12284c"/>
      <path id="Trazado_8280" data-name="Trazado 8280" d="M20.95,11.664a.9.9,0,0,1-.69-.317l-8.183-9.5L10.759,1.9l3.884,8.353a.91.91,0,1,1-1.651.768L8.533,1.434a.911.911,0,0,1,.787-1.3L12.441,0a.867.867,0,0,1,.73.316l8.47,9.84a.91.91,0,0,1-.69,1.505" transform="translate(4.951 0)" fill="#12284c"/>
      <path id="Trazado_8281" data-name="Trazado 8281" d="M21.637,10.544V8.722a7.436,7.436,0,0,0,2.766-.4,19.351,19.351,0,0,1,1.881.971c-.649.622-2.01,1.248-4.647,1.248" transform="translate(12.682 4.879)" fill="#12284c"/>
    </g>
  </g>
</svg>
