<svg id="Grupo_4" data-name="Grupo 4" xmlns="http://www.w3.org/2000/svg" xmlns:xlink="http://www.w3.org/1999/xlink" width="111" height="29.515" viewBox="0 0 111 29.515">
  <defs>
    <clipPath id="clip-path">
      <rect id="Rectángulo_179" data-name="Rectángulo 179" width="111" height="29.515" fill="#edf2f8"/>
    </clipPath>
    <clipPath id="clip-path-2">
      <path id="Trazado_8099" data-name="Trazado 8099" d="M226.332,4.93l-3.943,12.252L218.221,4.93H210.69V26.564h5.663V16.019l3.683,10.545h4.491l3.681-10.645V26.564h5.664V4.93Z" transform="translate(-210.69 -4.93)" fill="#edf2f8"/>
    </clipPath>
    <clipPath id="clip-path-3">
      <path id="Trazado_8100" data-name="Trazado 8100" d="M313.309,9.8c0,4.719,4.272,5.848,6.565,6.453.441.118.882.226,1.309.331,2.549.625,4.1,1.088,4.1,2.257,0,1.619-2.414,1.745-3.153,1.745-1.378,0-3.689-.384-3.689-2.957v-.762h-5.8l-.008.753a7.224,7.224,0,0,0,2.019,5.3,10.121,10.121,0,0,0,7.3,2.626c5.545,0,9.127-2.831,9.127-7.212,0-4.991-4.8-6.168-6.376-6.555l-.617-.157a29.313,29.313,0,0,1-4.373-1.294c-.555-.272-.6-.451-.6-.9,0-1.447,1.9-1.52,2.281-1.52,2.185,0,3.115.673,3.211,2.325l.042.717h5.761v-.761c0-4.466-3.379-7.24-8.817-7.24-4.116,0-8.282,2.351-8.282,6.846" transform="translate(-312.633 -2.952)" fill="#edf2f8"/>
    </clipPath>
    <clipPath id="clip-path-4">
      <path id="Trazado_8101" data-name="Trazado 8101" d="M393.35,4.93V26.564H409.1V21.323h-9.8V4.93Z" transform="translate(-393.35 -4.93)" fill="#edf2f8"/>
    </clipPath>
  </defs>
  <path id="Trazado_8094" data-name="Trazado 8094" d="M8.966,37,7.51,41.2,6.222,37H4.514L3.216,41.2,1.77,37H0l2.556,7.316H3.771l1.592-5.086,1.6,5.086H8.18L10.736,37Z" transform="translate(0 -28.036)" fill="#edf2f8"/>
  <g id="Grupo_62" data-name="Grupo 62" transform="translate(0 0)">
    <g id="Grupo_61" data-name="Grupo 61" transform="translate(0 0)" clip-path="url(#clip-path)">
      <path id="Trazado_8095" data-name="Trazado 8095" d="M49.916,48.473a3.151,3.151,0,0,1-2.236.9,2.968,2.968,0,0,1-2.121-.79,2.775,2.775,0,0,1-.838-2.119,2.732,2.732,0,0,1,.854-2.114,2.88,2.88,0,0,1,2.016-.785,2.917,2.917,0,0,1,1.974.7,2.412,2.412,0,0,1,.812,1.926v.837H46.271a1.118,1.118,0,0,0,.482.754,1.543,1.543,0,0,0,.922.293,1.808,1.808,0,0,0,1.362-.555Zm-1.508-3.339a1.192,1.192,0,0,0-.791-.272,1.416,1.416,0,0,0-.854.283,1.08,1.08,0,0,0-.45.764h2.472a1.116,1.116,0,0,0-.377-.774" transform="translate(-33.891 -33.015)" fill="#edf2f8"/>
      <path id="Trazado_8096" data-name="Trazado 8096" d="M85.494,49.29H84.018v-.68a1.852,1.852,0,0,1-1.5.764,2.234,2.234,0,0,1-1.5-.518,1.723,1.723,0,0,1-.608-1.381,1.461,1.461,0,0,1,.628-1.293,3.011,3.011,0,0,1,1.718-.429h1.173v-.031q0-.9-.953-.9a2.581,2.581,0,0,0-.864.162,2.8,2.8,0,0,0-.77.4l-.7-1.015a4.2,4.2,0,0,1,2.534-.806,2.623,2.623,0,0,1,1.676.513,1.941,1.941,0,0,1,.649,1.622Zm-1.582-2.145v-.272h-.984q-.943,0-.943.586a.539.539,0,0,0,.225.466,1.092,1.092,0,0,0,.644.162,1.145,1.145,0,0,0,.738-.257.833.833,0,0,0,.319-.685" transform="translate(-60.933 -33.015)" fill="#edf2f8"/>
      <path id="Trazado_8097" data-name="Trazado 8097" d="M109.059,45.04a1.19,1.19,0,0,0-1.047.5,2.259,2.259,0,0,0-.346,1.313v2.439H106.1V43.658h1.571V44.4a2.641,2.641,0,0,1,.759-.586,2.07,2.07,0,0,1,.927-.251l.011,1.476Z" transform="translate(-80.403 -33.015)" fill="#edf2f8"/>
      <path id="Trazado_8098" data-name="Trazado 8098" d="M126.513,48.473a3.151,3.151,0,0,1-2.236.9,2.968,2.968,0,0,1-2.121-.79,2.775,2.775,0,0,1-.838-2.119,2.732,2.732,0,0,1,.854-2.114,2.88,2.88,0,0,1,2.016-.785,2.917,2.917,0,0,1,1.974.7,2.412,2.412,0,0,1,.812,1.926v.837h-4.106a1.118,1.118,0,0,0,.482.754,1.543,1.543,0,0,0,.922.293,1.808,1.808,0,0,0,1.362-.555ZM125,45.135a1.192,1.192,0,0,0-.791-.272,1.416,1.416,0,0,0-.854.283,1.08,1.08,0,0,0-.45.764h2.472a1.116,1.116,0,0,0-.377-.774" transform="translate(-91.94 -33.015)" fill="#edf2f8"/>
    </g>
  </g>
  <g id="Grupo_64" data-name="Grupo 64" transform="translate(51.02 1.194)">
    <g id="Grupo_63" data-name="Grupo 63" clip-path="url(#clip-path-2)">
      <rect id="Rectángulo_180" data-name="Rectángulo 180" width="23.183" height="21.634" fill="#edf2f8"/>
    </g>
  </g>
  <g id="Grupo_66" data-name="Grupo 66" transform="translate(75.707 0.715)">
    <g id="Grupo_65" data-name="Grupo 65" clip-path="url(#clip-path-3)">
      <rect id="Rectángulo_181" data-name="Rectángulo 181" width="18.475" height="22.592" transform="translate(-0.023 0)" fill="#edf2f8"/>
    </g>
  </g>
  <g id="Grupo_68" data-name="Grupo 68" transform="translate(95.253 1.194)">
    <g id="Grupo_67" data-name="Grupo 67" clip-path="url(#clip-path-4)">
      <rect id="Rectángulo_182" data-name="Rectángulo 182" width="15.747" height="21.634" transform="translate(0 0)" fill="#edf2f8"/>
    </g>
  </g>
  <g id="Grupo_70" data-name="Grupo 70" transform="translate(0 0)">
    <g id="Grupo_69" data-name="Grupo 69" transform="translate(0 0)" clip-path="url(#clip-path)">
      <path id="Trazado_8102" data-name="Trazado 8102" d="M358.338,109.174a2.007,2.007,0,0,1-.8-.157,2.039,2.039,0,0,1-1.083-1.083,1.987,1.987,0,0,1-.157-.79,2.019,2.019,0,0,1,.155-.79,2,2,0,0,1,.433-.647,2.036,2.036,0,0,1,.647-.436,2,2,0,0,1,.8-.158,2.217,2.217,0,0,1,.861.169,1.959,1.959,0,0,1,.692.478l-.293.3a1.528,1.528,0,0,0-.56-.4,1.758,1.758,0,0,0-.7-.143,1.578,1.578,0,0,0-.627.124,1.544,1.544,0,0,0-.506.346,1.6,1.6,0,0,0-.337.517,1.77,1.77,0,0,0,0,1.285,1.591,1.591,0,0,0,.337.52,1.545,1.545,0,0,0,.506.346,1.578,1.578,0,0,0,.627.124,1.5,1.5,0,0,0,.723-.174,1.425,1.425,0,0,0,.523-.478,1.46,1.46,0,0,0,.233-.686H358.4v-.383h1.851v.175a1.984,1.984,0,0,1-.146.765,1.925,1.925,0,0,1-.405.618,1.87,1.87,0,0,1-.607.414,1.9,1.9,0,0,1-.754.149" transform="translate(-270.02 -79.659)" fill="#edf2f8"/>
      <path id="Trazado_8103" data-name="Trazado 8103" d="M380.015,109.305v-3.937H381.7a1.516,1.516,0,0,1,.675.141,1.074,1.074,0,0,1,.448.394,1.092,1.092,0,0,1,.16.6,1.017,1.017,0,0,1-.228.666,1.2,1.2,0,0,1-.611.391l.883,1.749h-.478l-.844-1.693h-1.26v1.693Zm.433-2.059h1.226a.956.956,0,0,0,.638-.2.735.735,0,0,0,0-1.086.954.954,0,0,0-.638-.2h-1.226Z" transform="translate(-287.991 -79.852)" fill="#edf2f8"/>
      <path id="Trazado_8104" data-name="Trazado 8104" d="M400.905,109.175a2.035,2.035,0,0,1-.8-.154,2,2,0,0,1-1.08-1.08,2.124,2.124,0,0,1,0-1.592,2,2,0,0,1,1.08-1.08,2.11,2.11,0,0,1,1.586,0,2.006,2.006,0,0,1,1.08,1.08,2.127,2.127,0,0,1,0,1.592,2.007,2.007,0,0,1-1.08,1.08,2.026,2.026,0,0,1-.791.154m0-.4a1.546,1.546,0,0,0,1.128-.47,1.6,1.6,0,0,0,.337-.52,1.769,1.769,0,0,0,0-1.285,1.6,1.6,0,0,0-.337-.517,1.546,1.546,0,0,0-1.128-.47,1.584,1.584,0,0,0-.627.124,1.552,1.552,0,0,0-.506.346,1.6,1.6,0,0,0-.337.517,1.663,1.663,0,0,0-.121.638,1.7,1.7,0,0,0,.121.647,1.594,1.594,0,0,0,.337.52,1.549,1.549,0,0,0,.506.346,1.58,1.58,0,0,0,.627.124" transform="translate(-302.284 -79.66)" fill="#edf2f8"/>
      <path id="Trazado_8105" data-name="Trazado 8105" d="M424.378,109.368a1.7,1.7,0,0,1-.866-.211,1.41,1.41,0,0,1-.562-.6,2,2,0,0,1-.2-.917v-2.272h.433v2.272a1.575,1.575,0,0,0,.147.7,1.077,1.077,0,0,0,.416.461,1.3,1.3,0,0,0,1.263,0,1.088,1.088,0,0,0,.414-.461,1.581,1.581,0,0,0,.146-.7v-2.272H426v2.272a1.977,1.977,0,0,1-.2.917,1.435,1.435,0,0,1-.562.6,1.691,1.691,0,0,1-.863.211" transform="translate(-320.38 -79.853)" fill="#edf2f8"/>
      <path id="Trazado_8106" data-name="Trazado 8106" d="M444.074,109.306v-3.937h1.71a1.5,1.5,0,0,1,.672.141,1.053,1.053,0,0,1,.442.4,1.219,1.219,0,0,1,0,1.2,1.07,1.07,0,0,1-.445.4,1.477,1.477,0,0,1-.669.143h-1.277v1.659Zm.433-2.036h1.243a.934.934,0,0,0,.635-.205.7.7,0,0,0,.236-.554.688.688,0,0,0-.236-.551.943.943,0,0,0-.635-.2h-1.243Z" transform="translate(-336.538 -79.853)" fill="#edf2f8"/>
      <line id="Línea_28" data-name="Línea 28" y2="24.157" transform="translate(42.21 0)" fill="none" stroke="#edf2f8" stroke-width="1"/>
    </g>
  </g>
</svg>
