<svg xmlns="http://www.w3.org/2000/svg" width="21.314" height="18.929" viewBox="0 0 21.314 18.929">
  <path id="forward_to_inbox_24dp_5F6368_FILL0_wght200_GRAD0_opsz24" d="M130.147-751.977l-9.02-5.9v11.839a.676.676,0,0,0,.2.5.676.676,0,0,0,.5.2h10.017v1.127H121.821a1.764,1.764,0,0,1-1.3-.521,1.764,1.764,0,0,1-.521-1.3v-12.142a1.764,1.764,0,0,1,.521-1.3,1.764,1.764,0,0,1,1.3-.521h16.652a1.764,1.764,0,0,1,1.3.521,1.764,1.764,0,0,1,.521,1.3v7.762h-1.128v-7.459Zm0-1.258,8.673-5.638H121.474Zm7.459,12.164-.776-.776,2.318-2.368H133.66v-1.127h5.51L136.8-747.71l.8-.776,3.707,3.708Zm-16.479-16.8v0Z" transform="translate(-120 760)" fill="#112747"/>
</svg>
