<svg id="Grupo_1475" data-name="Grupo 1475" xmlns="http://www.w3.org/2000/svg" xmlns:xlink="http://www.w3.org/1999/xlink" width="234.734" height="62.416" viewBox="0 0 234.734 62.416">
  <defs>
    <clipPath id="clip-path">
      <rect id="Rectángulo_179" data-name="Rectángulo 179" width="234.734" height="62.416" fill="#112648"/>
    </clipPath>
    <clipPath id="clip-path-2">
      <path id="Trazado_8099" data-name="Trazado 8099" d="M243.769,4.93,235.43,30.84,226.617,4.93H210.69V50.679h11.977v-22.3l7.79,22.3h9.5l7.785-22.51v22.51h11.977V4.93Z" transform="translate(-210.69 -4.93)" fill="#112648"/>
    </clipPath>
    <clipPath id="clip-path-3">
      <path id="Trazado_8100" data-name="Trazado 8100" d="M314.064,17.429c0,9.98,9.034,12.366,13.883,13.647.932.249,1.865.478,2.768.7,5.39,1.321,8.664,2.3,8.664,4.774,0,3.424-5.1,3.691-6.669,3.691-2.914,0-7.8-.812-7.8-6.252V32.376H312.652l-.018,1.592a15.277,15.277,0,0,0,4.27,11.2c3.542,3.582,9.028,5.554,15.448,5.554,11.726,0,19.3-5.986,19.3-15.251,0-10.554-10.148-13.044-13.483-13.862l-1.3-.331c-4.8-1.232-7.691-1.974-9.249-2.737-1.174-.575-1.279-.955-1.279-1.893,0-3.06,4.017-3.214,4.823-3.214,4.62,0,6.588,1.424,6.791,4.916l.088,1.517h12.184v-1.61c0-9.444-7.145-15.31-18.646-15.31-8.7,0-17.514,4.972-17.514,14.477" transform="translate(-312.633 -2.952)" fill="#112648"/>
    </clipPath>
    <clipPath id="clip-path-4">
      <path id="Trazado_8101" data-name="Trazado 8101" d="M393.35,4.93V50.679h33.3V39.6H405.922V4.93Z" transform="translate(-393.35 -4.93)" fill="#112648"/>
    </clipPath>
  </defs>
  <path id="Trazado_8094" data-name="Trazado 8094" d="M18.96,37l-3.079,8.9L13.157,37H9.546L6.8,45.892,3.743,37H0L5.4,52.466H7.974L11.34,41.709l3.389,10.756H17.3L22.7,37Z" transform="translate(0 -18.05)" fill="#112648"/>
  <g id="Grupo_62" data-name="Grupo 62" transform="translate(0 0)">
    <g id="Grupo_61" data-name="Grupo 61" transform="translate(0 0)" clip-path="url(#clip-path)">
      <path id="Trazado_8095" data-name="Trazado 8095" d="M55.707,53.945a6.664,6.664,0,0,1-4.729,1.9,6.276,6.276,0,0,1-4.485-1.671A5.868,5.868,0,0,1,44.721,49.7a5.777,5.777,0,0,1,1.805-4.471,6.091,6.091,0,0,1,4.264-1.66,6.169,6.169,0,0,1,4.175,1.483,5.1,5.1,0,0,1,1.717,4.072v1.771H48a2.365,2.365,0,0,0,1.019,1.594,3.264,3.264,0,0,0,1.949.62,3.824,3.824,0,0,0,2.88-1.173Zm-3.189-7.06a2.521,2.521,0,0,0-1.673-.575,2.994,2.994,0,0,0-1.805.6,2.284,2.284,0,0,0-.952,1.615h5.227a2.36,2.36,0,0,0-.8-1.638" transform="translate(-21.819 -21.255)" fill="#112648"/>
      <path id="Trazado_8096" data-name="Trazado 8096" d="M91.168,55.671H88.046V54.233a3.917,3.917,0,0,1-3.179,1.616,4.725,4.725,0,0,1-3.178-1.1A3.644,3.644,0,0,1,80.4,51.831,3.09,3.09,0,0,1,81.732,49.1a6.368,6.368,0,0,1,3.633-.907h2.481v-.066q0-1.9-2.016-1.9A5.459,5.459,0,0,0,84,46.564a5.926,5.926,0,0,0-1.628.852l-1.484-2.147a8.89,8.89,0,0,1,5.36-1.7A5.547,5.547,0,0,1,89.8,44.65a4.1,4.1,0,0,1,1.373,3.43Zm-3.345-4.537v-.576H85.742q-1.994,0-1.994,1.239a1.141,1.141,0,0,0,.476.985,2.31,2.31,0,0,0,1.362.343,2.422,2.422,0,0,0,1.561-.543,1.763,1.763,0,0,0,.675-1.449" transform="translate(-39.229 -21.255)" fill="#112648"/>
      <path id="Trazado_8097" data-name="Trazado 8097" d="M112.363,46.685a2.517,2.517,0,0,0-2.215,1.051,4.776,4.776,0,0,0-.731,2.778v5.157H106.1V43.763h3.322v1.571a5.584,5.584,0,0,1,1.606-1.239,4.377,4.377,0,0,1,1.96-.531l.023,3.121Z" transform="translate(-51.764 -21.255)" fill="#112648"/>
      <path id="Trazado_8098" data-name="Trazado 8098" d="M132.3,53.945a6.664,6.664,0,0,1-4.729,1.9,6.276,6.276,0,0,1-4.485-1.671,5.868,5.868,0,0,1-1.772-4.482,5.777,5.777,0,0,1,1.805-4.471,6.091,6.091,0,0,1,4.264-1.66,6.169,6.169,0,0,1,4.175,1.483,5.1,5.1,0,0,1,1.717,4.072v1.771H124.6a2.365,2.365,0,0,0,1.019,1.594,3.264,3.264,0,0,0,1.949.62,3.824,3.824,0,0,0,2.88-1.173Zm-3.189-7.06a2.521,2.521,0,0,0-1.673-.575,3,3,0,0,0-1.805.6,2.284,2.284,0,0,0-.952,1.615h5.227a2.36,2.36,0,0,0-.8-1.638" transform="translate(-59.191 -21.255)" fill="#112648"/>
    </g>
  </g>
  <g id="Grupo_64" data-name="Grupo 64" transform="translate(107.894 2.525)">
    <g id="Grupo_63" data-name="Grupo 63" clip-path="url(#clip-path-2)">
      <rect id="Rectángulo_180" data-name="Rectángulo 180" width="49.025" height="45.749" fill="#112648"/>
    </g>
  </g>
  <g id="Grupo_66" data-name="Grupo 66" transform="translate(160.099 1.512)">
    <g id="Grupo_65" data-name="Grupo 65" clip-path="url(#clip-path-3)">
      <rect id="Rectángulo_181" data-name="Rectángulo 181" width="39.07" height="47.775" transform="translate(-0.049 0)" fill="#112648"/>
    </g>
  </g>
  <g id="Grupo_68" data-name="Grupo 68" transform="translate(201.434 2.525)">
    <g id="Grupo_67" data-name="Grupo 67" clip-path="url(#clip-path-4)">
      <rect id="Rectángulo_182" data-name="Rectángulo 182" width="33.3" height="45.749" transform="translate(0 0)" fill="#112648"/>
    </g>
  </g>
  <g id="Grupo_70" data-name="Grupo 70" transform="translate(0 0)">
    <g id="Grupo_69" data-name="Grupo 69" transform="translate(0 0)" clip-path="url(#clip-path)">
      <path id="Trazado_8102" data-name="Trazado 8102" d="M360.608,113.7a4.243,4.243,0,0,1-1.683-.333,4.312,4.312,0,0,1-2.29-2.29,4.2,4.2,0,0,1-.333-1.671,4.27,4.27,0,0,1,.327-1.671,4.226,4.226,0,0,1,.916-1.368,4.3,4.3,0,0,1,1.368-.921,4.226,4.226,0,0,1,1.682-.333,4.688,4.688,0,0,1,1.82.357,4.142,4.142,0,0,1,1.464,1.011l-.619.63a3.232,3.232,0,0,0-1.183-.85,3.718,3.718,0,0,0-1.481-.3,3.336,3.336,0,0,0-1.326.262,3.264,3.264,0,0,0-1.071.731,3.386,3.386,0,0,0-.713,1.094,3.743,3.743,0,0,0,0,2.718,3.364,3.364,0,0,0,.713,1.1,3.266,3.266,0,0,0,1.071.732,3.337,3.337,0,0,0,1.326.262,3.168,3.168,0,0,0,1.529-.369,3.012,3.012,0,0,0,1.106-1.011,3.088,3.088,0,0,0,.494-1.451h-2.986v-.809h3.913v.369a4.2,4.2,0,0,1-.309,1.618,4.07,4.07,0,0,1-.857,1.308,3.955,3.955,0,0,1-1.284.875,4.027,4.027,0,0,1-1.594.315" transform="translate(-173.84 -51.285)" fill="#112648"/>
      <path id="Trazado_8103" data-name="Trazado 8103" d="M380.015,113.694v-8.326h3.568a3.207,3.207,0,0,1,1.427.3,2.271,2.271,0,0,1,.946.833,2.309,2.309,0,0,1,.339,1.261,2.151,2.151,0,0,1-.482,1.409,2.545,2.545,0,0,1-1.291.827l1.868,3.7H385.38l-1.785-3.58h-2.664v3.58Zm.916-4.353h2.593a2.021,2.021,0,0,0,1.35-.428,1.555,1.555,0,0,0,0-2.3,2.018,2.018,0,0,0-1.35-.428h-2.593Z" transform="translate(-185.41 -51.409)" fill="#112648"/>
      <path id="Trazado_8104" data-name="Trazado 8104" d="M403.168,113.7a4.3,4.3,0,0,1-1.682-.327,4.239,4.239,0,0,1-2.284-2.284,4.491,4.491,0,0,1,0-3.366,4.235,4.235,0,0,1,2.284-2.283,4.461,4.461,0,0,1,3.354,0,4.242,4.242,0,0,1,2.284,2.283,4.5,4.5,0,0,1,0,3.366,4.245,4.245,0,0,1-2.284,2.284,4.285,4.285,0,0,1-1.672.327m0-.844a3.269,3.269,0,0,0,2.385-.993,3.372,3.372,0,0,0,.713-1.1,3.742,3.742,0,0,0,0-2.718,3.389,3.389,0,0,0-.713-1.094,3.269,3.269,0,0,0-2.385-.993,3.349,3.349,0,0,0-1.326.262,3.283,3.283,0,0,0-1.07.731,3.389,3.389,0,0,0-.713,1.094,3.517,3.517,0,0,0-.255,1.35,3.59,3.59,0,0,0,.255,1.368,3.373,3.373,0,0,0,.713,1.1,3.276,3.276,0,0,0,1.07.731,3.34,3.34,0,0,0,1.326.262" transform="translate(-194.612 -51.285)" fill="#112648"/>
      <path id="Trazado_8105" data-name="Trazado 8105" d="M426.19,113.826a3.605,3.605,0,0,1-1.831-.446,2.982,2.982,0,0,1-1.189-1.267,4.232,4.232,0,0,1-.416-1.938v-4.806h.916v4.806a3.331,3.331,0,0,0,.31,1.487,2.278,2.278,0,0,0,.879.975,2.755,2.755,0,0,0,2.671,0,2.3,2.3,0,0,0,.875-.975,3.345,3.345,0,0,0,.309-1.487v-4.806h.916v4.806a4.181,4.181,0,0,1-.422,1.938,3.036,3.036,0,0,1-1.189,1.267,3.576,3.576,0,0,1-1.826.446" transform="translate(-206.262 -51.41)" fill="#112648"/>
      <path id="Trazado_8106" data-name="Trazado 8106" d="M444.074,113.7v-8.326h3.616a3.17,3.17,0,0,1,1.421.3,2.228,2.228,0,0,1,.934.838,2.577,2.577,0,0,1,0,2.534,2.264,2.264,0,0,1-.94.844,3.123,3.123,0,0,1-1.415.3h-2.7V113.7Zm.916-4.306h2.629a1.976,1.976,0,0,0,1.344-.434,1.472,1.472,0,0,0,.5-1.172,1.456,1.456,0,0,0-.5-1.166,1.994,1.994,0,0,0-1.344-.428H444.99Z" transform="translate(-216.664 -51.41)" fill="#112648"/>
      <line id="Línea_28" data-name="Línea 28" y2="51.084" transform="translate(89.263 0)" fill="none" stroke="#001e4b" stroke-width="1"/>
    </g>
  </g>
</svg>
