<svg xmlns="http://www.w3.org/2000/svg" width="21.634" height="21.634" viewBox="0 0 21.634 21.634">
  <path id="language_24dp_1F1F1F_FILL0_wght200_GRAD0_opsz24_3_" data-name="language_24dp_1F1F1F_FILL0_wght200_GRAD0_opsz24 (3)" d="M130.817-818.366a10.48,10.48,0,0,1-4.207-.854,10.972,10.972,0,0,1-3.438-2.318,10.972,10.972,0,0,1-2.318-3.438,10.48,10.48,0,0,1-.854-4.207,10.473,10.473,0,0,1,.854-4.21,10.984,10.984,0,0,1,2.318-3.434,10.971,10.971,0,0,1,3.438-2.318,10.479,10.479,0,0,1,4.207-.854,10.473,10.473,0,0,1,4.21.854,10.983,10.983,0,0,1,3.434,2.318,10.983,10.983,0,0,1,2.318,3.434,10.473,10.473,0,0,1,.854,4.21,10.48,10.48,0,0,1-.854,4.207,10.972,10.972,0,0,1-2.318,3.438,10.984,10.984,0,0,1-3.434,2.318A10.474,10.474,0,0,1,130.817-818.366Zm0-1.193a17.865,17.865,0,0,0,1.745-2.67,14.075,14.075,0,0,0,1.116-2.933h-5.723a16.469,16.469,0,0,0,1.139,3.025A13.651,13.651,0,0,0,130.817-819.558Zm-1.53-.18a11.236,11.236,0,0,1-1.536-2.451,14.107,14.107,0,0,1-1.034-2.971h-4.609a9.533,9.533,0,0,0,2.93,3.677A8.84,8.84,0,0,0,129.287-819.739Zm3.06,0a8.84,8.84,0,0,0,4.25-1.745,9.533,9.533,0,0,0,2.93-3.677h-4.609a20.573,20.573,0,0,1-1.15,2.994A14.332,14.332,0,0,1,132.347-819.739Zm-10.729-6.624h4.849a14.26,14.26,0,0,1-.193-1.441q-.057-.7-.057-1.379t.057-1.379a14.258,14.258,0,0,1,.193-1.441h-4.849a8.92,8.92,0,0,0-.306,1.36,9.893,9.893,0,0,0-.11,1.46,9.9,9.9,0,0,0,.11,1.46A8.917,8.917,0,0,0,121.618-826.363Zm6.051,0h6.3q.136-.74.193-1.418t.057-1.4q0-.724-.057-1.4T133.965-832h-6.3q-.136.74-.193,1.418t-.057,1.4q0,.724.057,1.4T127.669-826.363Zm7.5,0h4.849a8.916,8.916,0,0,0,.306-1.36,9.9,9.9,0,0,0,.11-1.46,9.9,9.9,0,0,0-.11-1.46,8.921,8.921,0,0,0-.306-1.36h-4.849a14.263,14.263,0,0,1,.193,1.441q.057.7.057,1.379t-.057,1.379A14.264,14.264,0,0,1,135.167-826.363Zm-.25-6.842h4.609a9.5,9.5,0,0,0-2.9-3.677,9.361,9.361,0,0,0-4.284-1.768,14.118,14.118,0,0,1,1.513,2.532A16.589,16.589,0,0,1,134.917-833.2Zm-6.962,0h5.723a16.659,16.659,0,0,0-1.174-3.06,13.349,13.349,0,0,0-1.687-2.543,13.349,13.349,0,0,0-1.687,2.543A16.658,16.658,0,0,0,127.956-833.2Zm-5.848,0h4.609a16.589,16.589,0,0,1,1.057-2.913,14.118,14.118,0,0,1,1.513-2.532,9.235,9.235,0,0,0-4.3,1.78A9.679,9.679,0,0,0,122.108-833.2Z" transform="translate(-120 840)" fill="#d0dcef"/>
</svg>
