<svg xmlns="http://www.w3.org/2000/svg" width="174.887" height="66.117" viewBox="0 0 174.887 66.117">
  <g id="Grupo_192" data-name="Grupo 192" transform="translate(-2024.036 206.864)">
    <g id="Grupo_189" data-name="Grupo 189" transform="translate(2023 -207.476)">
      <path id="Trazado_1" data-name="Trazado 1" d="M48.319,10.113h6.687l5.05,14.852h.061l4.777-14.852H71.58v21.6H67.132V16.4h-.059L61.781,31.711H58.118L52.826,16.555h-.061V31.711H48.319Z" transform="translate(65.283 13.664)" fill="#112548"/>
      <g id="Grupo_3" data-name="Grupo 3" transform="translate(0 0)">
        <g id="Grupo_190" data-name="Grupo 190">
          <path id="Trazado_2" data-name="Trazado 2" d="M64,24.838c0,2.875,2.238,3.995,4.78,3.995,1.662,0,4.2-.484,4.2-2.694,0-2.328-3.237-2.723-6.411-3.569-3.207-.846-6.444-2.088-6.444-6.139,0-4.418,4.176-6.536,8.076-6.536,4.507,0,8.652,1.968,8.652,6.959h-4.6c-.15-2.6-2-3.268-4.265-3.268-1.512,0-3.266.635-3.266,2.45,0,1.665,1.027,1.876,6.442,3.268,1.573.393,6.414,1.392,6.414,6.292,0,3.962-3.115,6.926-8.986,6.926-4.777,0-9.254-2.36-9.193-7.683Z" transform="translate(80.261 13.368)" fill="#112548"/>
          <path id="Trazado_3" data-name="Trazado 3" d="M68.329,10.113h4.749v17.6H83.6v3.992H68.329Z" transform="translate(92.319 13.664)" fill="#112548"/>
          <path id="Trazado_13" data-name="Trazado 13" d="M27.99,19.1,55.039.453V26.859H27.99Z" transform="translate(37.817 0.613)" fill="#112548"/>
          <path id="Trazado_14" data-name="Trazado 14" d="M27.99,19.1,55.039.453V26.859H27.99V19.1" transform="translate(37.817 0.613)" fill="none" stroke="#fff" stroke-width="0.477"/>
          <path id="Trazado_15" data-name="Trazado 15" d="M27.874,19.1v7.761H.768V.453Z" transform="translate(1.038 0.613)" fill="#112548"/>
          <path id="Trazado_16" data-name="Trazado 16" d="M27.874,19.1v7.761H.768V.453L27.874,19.1" transform="translate(1.038 0.613)" fill="none" stroke="#fff" stroke-width="0.477"/>
          <path id="Trazado_17" data-name="Trazado 17" d="M27.82,24.816.768,43.413V17.008H27.82v7.808" transform="translate(1.038 22.979)" fill="none" stroke="#112548" stroke-linecap="round" stroke-linejoin="round" stroke-width="0.477"/>
          <path id="Trazado_18" data-name="Trazado 18" d="M27.967,24.8V17.008H55.075V43.413L27.967,24.8" transform="translate(37.786 22.979)" fill="none" stroke="#112548" stroke-linecap="round" stroke-linejoin="round" stroke-width="0.477"/>
          <path id="Trazado_19" data-name="Trazado 19" d="M35.97,46.238l10.239-9.86,10.3,9.86H91.823L46.209,14.917.767,46.238h35.2" transform="translate(1.037 20.154)" fill="none" stroke="#112548" stroke-linecap="round" stroke-linejoin="round" stroke-width="0.477"/>
          <path id="Trazado_20" data-name="Trazado 20" d="M56.62.454,46.381,10.316,36.083.454H.768L46.381,31.775,91.823.454Z" transform="translate(1.037 0.613)" fill="#112548"/>
          <path id="Trazado_21" data-name="Trazado 21" d="M56.62.454,46.381,10.316,36.083.454H.768L46.381,31.775,91.823.454H56.62" transform="translate(1.037 0.613)" fill="none" stroke="#fff" stroke-width="0.477"/>
        </g>
      </g>
    </g>
  </g>
</svg>
