<svg xmlns="http://www.w3.org/2000/svg" width="155.546" height="58.605" viewBox="0 0 155.546 58.605">
  <g id="Grupo_1403" data-name="Grupo 1403" transform="translate(-2058.815 91.431)">
    <path id="Trazado_1" data-name="Trazado 1" d="M48.319,10.113h5.964l4.5,13.247h.055L63.1,10.113h5.964V29.377H65.1V15.725h-.052L60.327,29.377H57.059L52.339,15.859h-.055V29.377H48.319Z" transform="translate(2110.454 -81.287)" fill="#fff"/>
    <path id="Trazado_2" data-name="Trazado 2" d="M63.505,23.223c0,2.565,2,3.563,4.263,3.563,1.483,0,3.75-.432,3.75-2.4,0-2.076-2.888-2.428-5.719-3.183-2.86-.755-5.748-1.862-5.748-5.475,0-3.94,3.724-5.83,7.2-5.83,4.02,0,7.717,1.755,7.717,6.207h-4.1c-.134-2.321-1.78-2.915-3.8-2.915-1.348,0-2.913.566-2.913,2.185,0,1.485.916,1.673,5.746,2.915,1.4.35,5.721,1.241,5.721,5.612,0,3.534-2.779,6.178-8.015,6.178-4.261,0-8.254-2.105-8.2-6.853Z" transform="translate(2122.616 -81.528)" fill="#fff"/>
    <path id="Trazado_3" data-name="Trazado 3" d="M68.329,10.113h4.236v15.7h9.389v3.561H68.329Z" transform="translate(2132.407 -81.287)" fill="#fff"/>
    <path id="Trazado_13" data-name="Trazado 13" d="M27.99,17.083,52.117.453V24.006H27.99Z" transform="translate(2088.152 -91.885)" fill="#112548"/>
    <path id="Trazado_14" data-name="Trazado 14" d="M27.99,17.083,52.117.453V24.006H27.99V17.083" transform="translate(2088.152 -91.885)" fill="#fff"/>
    <path id="Trazado_15" data-name="Trazado 15" d="M24.945,17.083v6.922H.768V.453Z" transform="translate(2058.287 -91.885)" fill="#112548"/>
    <path id="Trazado_16" data-name="Trazado 16" d="M24.945,17.083v6.922H.768V.453l24.177,16.63" transform="translate(2058.287 -91.885)" fill="#fff"/>
    <path id="Trazado_17" data-name="Trazado 17" d="M24.9,23.972.768,40.56V17.008H24.9v6.964" transform="translate(2058.287 -73.723)" fill="none" stroke="#fff" stroke-linecap="round" stroke-linejoin="round" stroke-width="0.477"/>
    <path id="Trazado_18" data-name="Trazado 18" d="M27.967,23.957v-6.95H52.146V40.56l-24.179-16.6" transform="translate(2088.127 -73.723)" fill="none" stroke="#fff" stroke-linecap="round" stroke-linejoin="round" stroke-width="0.477"/>
    <path id="Trazado_19" data-name="Trazado 19" d="M32.167,42.854l9.133-8.8,9.185,8.8h31.5L41.3,14.917.767,42.854h31.4" transform="translate(2058.286 -76.017)" fill="none" stroke="#fff" stroke-linecap="round" stroke-linejoin="round" stroke-width="0.477"/>
    <path id="Trazado_20" data-name="Trazado 20" d="M50.586.454l-9.133,8.8L32.268.454H.768L41.453,28.391,81.985.454Z" transform="translate(2058.287 -91.884)" fill="#112548"/>
    <path id="Trazado_21" data-name="Trazado 21" d="M50.586.454l-9.133,8.8L32.268.454H.768L41.453,28.391,81.985.454h-31.4" transform="translate(2058.287 -91.884)" fill="#fff"/>
  </g>
</svg>
