<svg id="Grupo_1445" data-name="Grupo 1445" xmlns="http://www.w3.org/2000/svg" xmlns:xlink="http://www.w3.org/1999/xlink" width="33.044" height="36.822" viewBox="0 0 33.044 36.822">
  <defs>
    <clipPath id="clip-path">
      <rect id="Rectángulo_775" data-name="Rectángulo 775" width="33.044" height="36.822" fill="none"/>
    </clipPath>
  </defs>
  <g id="Grupo_1444" data-name="Grupo 1444" clip-path="url(#clip-path)">
    <path id="Trazado_8263" data-name="Trazado 8263" d="M15.086,36.684.85,27.913a.792.792,0,0,1-.375-.651L0,10.293a.691.691,0,0,1,.011-.18.767.767,0,0,1,.034-.127.785.785,0,0,1,.344-.414h0l.014-.008L17.4.1a.793.793,0,0,1,.807.023L32.676,9.278a.792.792,0,0,1,.367.705l-.828,17.527a.789.789,0,0,1-.415.659L15.873,36.708a.789.789,0,0,1-.787-.024M31.442,10.367,17.76,1.708,2.36,10.285l4.007,2.439a.789.789,0,1,1-.821,1.348L1.62,11.684l.422,15.107L15.528,35.1l15.13-8.111Z" transform="translate(0 0)" fill="#12284c"/>
    <path id="Trazado_8264" data-name="Trazado 8264" d="M12.248,17.181a.8.8,0,0,0,.4-.1L29.144,8a.79.79,0,1,0-.763-1.382L12.287,15.479l-3.715-2.26a.79.79,0,0,0-.821,1.35l4.106,2.5a.8.8,0,0,0,.392.115" transform="translate(3.068 2.713)" fill="#12284c"/>
    <path id="Trazado_8265" data-name="Trazado 8265" d="M11.207,31.44h.027a.789.789,0,0,0,.782-.8l-.167-16.928a.773.773,0,0,0-.8-.782.79.79,0,0,0-.782.8l.166,16.927a.789.789,0,0,0,.77.782" transform="translate(4.275 5.383)" fill="#12284c"/>
    <path id="Trazado_8266" data-name="Trazado 8266" d="M9,21.581a.791.791,0,0,0,.809-.772l.118-5.064L26.1,6.576A.79.79,0,1,0,25.32,5.2L8.758,14.591a.792.792,0,0,0-.4.67l-.095,4.052L5.672,17.528l.119-5.151L21.261,3.8a.79.79,0,1,0-.766-1.382L4.63,11.214a.79.79,0,0,0-.408.673l-.14,6.032a.794.794,0,0,0,.343.67l4.148,2.854A.777.777,0,0,0,9,21.581" transform="translate(1.699 0.964)" fill="#12284c"/>
    <path id="Trazado_8267" data-name="Trazado 8267" d="M16.915,23.686a2.41,2.41,0,0,1-.565-.065c-.8-.191-2.141-.959-2.126-3.958,0-.042,0-.084,0-.127a.648.648,0,0,1,0-.1c.071-1.792.865-5.193,3.507-6.675a2.484,2.484,0,0,1,2.6-.193c1.347.795,1.439,2.98,1.436,3.63a.815.815,0,0,1-.415.705l-5.5,3.085c.041,1.173.358,1.933.87,2.055.772.2,2.2-.768,3.031-2.429a.813.813,0,0,1,1.454.727c-1,2.011-2.766,3.351-4.3,3.351m2.379-9.772a1.8,1.8,0,0,0-.761.261A5.759,5.759,0,0,0,16.069,18l4.058-2.276a2.486,2.486,0,0,0-.62-1.756.414.414,0,0,0-.212-.051" transform="translate(5.921 5.115)" fill="#12284c"/>
  </g>
</svg>
