<svg id="instagram-logo-facebook-2-svgrepo-com" xmlns="http://www.w3.org/2000/svg" width="16.269" height="16.267" viewBox="0 0 16.269 16.267">
  <path id="Trazado_22" data-name="Trazado 22" d="M21.853,8.4a.953.953,0,1,0,.953.953A.93.93,0,0,0,21.853,8.4Z" transform="translate(-9.397 -5.405)" fill="#d1dcef"/>
  <path id="Trazado_23" data-name="Trazado 23" d="M14.116,10.2A4.023,4.023,0,0,0,10.1,14.216a4.016,4.016,0,1,0,8.031,0A4.023,4.023,0,0,0,14.116,10.2Zm0,6.6A2.586,2.586,0,1,1,16.7,14.216,2.585,2.585,0,0,1,14.116,16.8Z" transform="translate(-5.948 -5.98)" fill="#d1dcef"/>
  <path id="Trazado_24" data-name="Trazado 24" d="M15.435,4H8.969A4.9,4.9,0,0,0,4,8.9v6.466a4.88,4.88,0,0,0,4.9,4.9h6.466a4.88,4.88,0,0,0,4.9-4.9V8.9A4.781,4.781,0,0,0,15.435,4ZM18.77,15.435a3.413,3.413,0,0,1-3.4,3.4H8.9a3.413,3.413,0,0,1-3.4-3.4V8.969a3.413,3.413,0,0,1,3.4-3.4h6.466a3.413,3.413,0,0,1,3.4,3.4Z" transform="translate(-4 -4)" fill="#d1dcef"/>
</svg>
