<svg xmlns="http://www.w3.org/2000/svg" xmlns:xlink="http://www.w3.org/1999/xlink" width="247.454" height="416.72" viewBox="0 0 247.454 416.72">
  <defs>
    <clipPath id="clip-path">
      <rect id="Rectángulo_647" data-name="Rectángulo 647" width="247.454" height="416.72" fill="#edf1f7" stroke="rgba(17,39,71,0.06)" stroke-width="1"/>
    </clipPath>
  </defs>
  <g id="Grupo_1361" data-name="Grupo 1361" transform="translate(-836.273 -180.356)">
    <g id="Grupo_1306" data-name="Grupo 1306" transform="translate(836.273 180.356)">
      <g id="Grupo_1255" data-name="Grupo 1255" clip-path="url(#clip-path)">
        <path id="Trazado_7764" data-name="Trazado 7764" d="M55.96,104.327l-6.258-.332-2.072,5.513-3.109-4.145-4.48-.332-2.777-1.036-4.809,5.181-4.145.332L26.9,102.254,24.83,93.633l2.072-3.44-2.736-1.409-2.072-6.552-2.777-2.072,1.2-5.015,2.777-2.57-2.611-1.2.7-3.315V63.911l1.907-2.4V54.42l.5-3.275-2.072-3.816L20.478,43.56l5.76.329L36.6,36.635h6.22l.661,11.73L47.3,50.438l6.217,1.036L61.1,56.658l6.922,1.036L69.39,65.32l-2.072,1.368,1.741,1.368.332,4.849,9.7-.332v4.145L83.236,81.2a6.991,6.991,0,0,1-.7,4.852c-.83,1.449-1.161,4.145-1.287,6.051l-4.934-2.611L60.769,90.856l-4.477,13.471Z" transform="translate(41.156 78.053)" fill="#edf1f7" stroke="rgba(17,39,71,0.06)" stroke-width="1"/>
        <path id="Trazado_7765" data-name="Trazado 7765" d="M35.934,85.233l2.736,4.849s-.664,9.329-3.109,13.474c-2.4,4.145-5.181,6.217-4.809,11.066.332,4.809,2.4,11.026.332,12.766s-3.109,23.132-3.109,23.132l-3.44,1.741,2.072,5.885,2.736,2.072L27.976,165.4l2.4,2.072-1.7,3.112,1.036,3.44-1.741,8.622a58.231,58.231,0,0,1-2.777,7.626c-2.072,4.809-2.4,11.026-3.772,12.062-.789.582-1.287,4.229-1.493,7.545L9.9,209.754c.5-30.466,6.092-81.369,13.223-105.161,2.238-7.463,5.181-17.907,7.792-29.555l4.643.538Z" transform="translate(21.099 159.87)" fill="#edf1f7" stroke="rgba(17,39,71,0.06)" stroke-width="1"/>
        <path id="Trazado_7766" data-name="Trazado 7766" d="M35.993,97.725l-6.011-.373.373-8.29-3.109,2.072-4.849.7L19.62,89.767H16.18l-.332-5.181-3.813-6.549,3.813-4.852s1.368-6.549,3.44-8.29,12.435-3.813,12.435-3.813l1.741-1.368,1.368-7.006,1.287-7.751-4.145-5.97V35.877h4.683l-2.364-3.109v-2.32L41.3,30.2l6.922-2.4.87,1.08s-.786,5.469,3.109,5.967,11.4-2.57,11.649-3.894C64.1,29.66,68.782,26.8,68.782,26.8l-1.327-1.822-2.57.538-.5-4.4L59.7,16.189l10.362,2.57,3.109-1.784,4.145-.786s4.643-1.287,4.643-2.57a8.221,8.221,0,0,0-.329-2.4l4.474.83L84.823,14.9l3.109,2.323L86.648,23.2l2.32,6.715,4.145,2.611L96.76,29.66l7.629-1.077,3.234-.457.786-2.072h6.715l2.861,1.534,7.5-.538,5.679-11.855a15,15,0,0,1,4.89,5.845c3.44,8.953,4.809,17.243,16.579,21.388,11.733,4.145,30.219,11.94,37.639,12.106,16.251.332,40.747,19.356,27.981,32.83-22.549,23.751-17.284,23.46-21.429,43.524-4.148,20.02-4.48,31.421-32.126,37.307-25.7,5.472-14.138,20.724-22.427,33.826-6.549,10.4-14.009,21.056-20.226,27.937l-1.2-8.913-10.365-9.326-3.109-.7-4.145-4.145-3.938.207.5-1.575,8.953-11.066,10.033-4.477.7-9-3.359-.83.582-9.532-5.889-.7.7-5.513-4.477-4.849H97.011L96.679,148.5s0-.952.081-2.238c.125-1.907.457-4.6,1.287-6.051a6.962,6.962,0,0,0,.7-4.849l-4.145-4.477v-4.145l-9.7.332-.329-4.849-1.744-1.368,2.072-1.368-1.365-7.629-6.925-1.036-7.585-5.181-6.217-1.036L59,102.533,58.336,90.8H52.119L41.753,98.056Z" transform="translate(25.641 23.894)" fill="#edf1f7" stroke="rgba(17,39,71,0.06)" stroke-width="1"/>
        <path id="Trazado_7767" data-name="Trazado 7767" d="M61.345,17.648,55.666,29.5l-7.5.538L45.3,28.508h-.166l2.777-7.792-3.109-4.4,3.732-6.258a63.264,63.264,0,0,1,12.807,7.585" transform="translate(95.461 21.44)" fill="#edf1f7" stroke="rgba(17,39,71,0.06)" stroke-width="1"/>
        <path id="Trazado_7768" data-name="Trazado 7768" d="M64.424,87.888l1.2,8.913a47.251,47.251,0,0,1-4.643,4.558c-5.763,4.809-18.7-1.7-21.347-1.575l-1.121-2.238,1.368-14.175,2.987-9.451,3.935-.207,4.148,4.145,3.109.7Z" transform="translate(82.06 157.049)" fill="#edf1f7" stroke="rgba(17,39,71,0.06)" stroke-width="1"/>
        <path id="Trazado_7769" data-name="Trazado 7769" d="M97.041,107.069l-2.983,9.451L92.689,130.7l1.118,2.238a.438.438,0,0,0-.413.166c-3.525,4.727,15.875,15.215,3.772,25.577-6.84,5.845-24,1.825-23.836,10.03.373,15.546-14.839,8.956-14.839,12.065,0,3.938.166,18.777-2.072,22.8-3.44,6.217-14.51,7.257-11.07,14.883,3.484,7.585,14.178,7.917,2.78,18.984-14.094,13.64-11.07,21.97-8.293,29.017l-2.032.081-.041-.786s-11.066-2.4-14.507-2.4-4.477-3.44-4.477-3.44l-1.409-8.662a19.1,19.1,0,0,1-3.772-.332c-.5-.166-.582-2.736-.457-5.6.207-3.315.7-6.962,1.493-7.545,1.368-1.036,1.7-7.253,3.772-12.062a58.229,58.229,0,0,0,2.777-7.626l1.741-8.625-1.036-3.44,1.7-3.109-2.4-2.072,1.368-5.181-2.736-2.072-2.072-5.885,3.44-1.741s1.036-21.391,3.109-23.132,0-7.958-.332-12.766c-.373-4.849,2.4-6.922,4.809-11.067,2.445-4.148,3.109-13.474,3.109-13.474l-2.736-4.849-.373-9.658,4.145-3.44-.664-12.438,2.4-.373,4.477-8.29L38.8,77.513l.7-4.145,5.513-3.109.708-6.922,4.809-5.184L53.31,59.19l4.477.332L60.9,63.667l2.072-5.513,6.258.332,2.032,3.484,6.217,4.809,4.145,2.072s10.365,6.217,13.846,7.958c3.44,1.741-4.145,13.139-4.145,13.139l10.694,1.036,4.477-2.445,5.554-4.145-.373-4.809,2.2.538,3.356.83-.7,8.994-10.03,4.477-8.953,11.07Z" transform="translate(27.89 123.9)" fill="#edf1f7" stroke="rgba(17,39,71,0.06)" stroke-width="1"/>
        <path id="Trazado_7770" data-name="Trazado 7770" d="M61.063,14.181l-3.732,6.258,3.109,4.4-2.777,7.792H51.114L50.328,34.7l-3.234.457L38.927,20.192l4.934-2.611L44.65,8.13a98.328,98.328,0,0,1,16.413,6.051" transform="translate(82.936 17.321)" fill="#edf1f7" stroke="rgba(17,39,71,0.06)" stroke-width="1"/>
        <path id="Trazado_7771" data-name="Trazado 7771" d="M76.246,80.465,75.667,90l-2.2-.538.373,4.809-5.554,4.145-4.477,2.448-10.7-1.036s7.588-11.4,4.148-13.142c-3.484-1.741-13.846-7.958-13.846-7.958l-4.145-2.072-6.217-4.809-2.032-3.481h.332l4.477-13.474L51.374,53.52l4.934,2.611c-.085,1.287-.085,2.241-.085,2.241L56.555,69.4H66.588l4.477,4.849-.7,5.513Z" transform="translate(66.094 114.027)" fill="#edf1f7" stroke="rgba(17,39,71,0.06)" stroke-width="1"/>
        <path id="Trazado_7772" data-name="Trazado 7772" d="M51.254,25.128l8.164,14.964-7.626,1.077-3.647,2.861L44,41.42,41.678,34.7l1.287-5.97-3.109-2.323,1.284-2.858-4.477-.83a3.793,3.793,0,0,0-.952-1.741,17.189,17.189,0,0,0-2.57-2.072s5.679-1.077,5.679-2.364-1.287-7.253-1.287-7.253l4.849-3.481c4.768,3.275,9,6.177,12.065,6.671a20.994,20.994,0,0,1,2.526.582l-.786,9.451Z" transform="translate(70.608 12.385)" fill="#edf1f7" stroke="rgba(17,39,71,0.06)" stroke-width="1"/>
        <path id="Trazado_7773" data-name="Trazado 7773" d="M45.5,51.661l-3.566-4.351L44.3,45.237l-2.861-5.181,1.036-7.006,1.287-2.861-9.576.789-5.428-5.431H20.465c-3.647,0-3.647-6.715-3.647-6.715l.25-4.683s-4.643-.25-3.606-2.611c1.036-2.323,3.356-6.468,3.356-6.468L21.545.013A41.908,41.908,0,0,1,33.854,2.042c6.217,2.78,10.365,8.293,24.168,5.557,8.7-1.741,18.486,4.974,26.613,10.569l-4.852,3.484s1.287,5.967,1.287,7.253-5.679,2.36-5.679,2.36a17.084,17.084,0,0,1,2.57,2.076,3.749,3.749,0,0,1,.952,1.741,8.123,8.123,0,0,1,.332,2.4c0,1.284-4.643,2.57-4.643,2.57l-4.145.786-3.109,1.784-10.362-2.57,4.683,4.931.5,4.4,2.57-.538,1.327,1.822s-4.686,2.861-4.934,4.145c-.247,1.327-7.751,4.4-11.649,3.9s-3.109-5.97-3.109-5.97Z" transform="translate(28.359 0.028)" fill="#edf1f7" stroke="rgba(17,39,71,0.06)" stroke-width="1"/>
        <path id="Trazado_7774" data-name="Trazado 7774" d="M25.089,131.24c1.036,7.958,24.168,18.323,11.066,19.691a18.025,18.025,0,0,1-2.154.122c-3.359-1.906-7.961-4.06-12.021-4.6l-1-21.682,2.032-.081a28.506,28.506,0,0,1,2.072,6.549" transform="translate(44.71 265.66)" fill="#edf1f7" stroke="rgba(17,39,71,0.06)" stroke-width="1"/>
        <path id="Trazado_7775" data-name="Trazado 7775" d="M67.264,51.691l-6.922,2.4-7.006.25v2.32L55.7,59.774H51.016v3.109l4.145,5.97L53.874,76.6,52.506,83.61l-4.517-1.368,2.777-5.557L46.289,75.32H35.927L32.446,69.1l-2.407-1.368L26.6,63.587l-3.854-.247a3.1,3.1,0,0,0-2.736-1.825c-4.145-.373-7.917.332-8.29-1.409-.247-1.2-5.6-4.561-8.622-6.342,4.809-4.6,9.451-13.183,8.29-21.266-1.368-9.7,8.994-17.988,12.435-21.429S33.479,0,41.772,0c.538,0,1.036,0,1.534.044L38.579,5.1s-2.32,4.145-3.356,6.468c-1.036,2.36,3.606,2.611,3.606,2.611l-.25,4.683s0,6.715,3.647,6.715h8.293l5.428,5.431,9.576-.789-1.287,2.861L63.2,40.086l2.861,5.181L63.7,47.339Z" transform="translate(6.598 -0.002)" fill="#edf1f7" stroke="rgba(17,39,71,0.06)" stroke-width="1"/>
        <path id="Trazado_7776" data-name="Trazado 7776" d="M62.878,82.286,64.95,86.1l-.5,3.275v7.091l-1.906,2.4v4.148l-.7,3.315,2.611,1.2-2.777,2.57-1.2,5.015-2.777,3.44-3.857.83A22.946,22.946,0,0,0,44.93,108.9C19.354,93.684,8.992,59.154,4.183,55.009-.669,50.864.035,37.725.035,33.581A12.35,12.35,0,0,1,.12,31.921l2.323,1L4.512,38.1l-.329,5.513,7.253,1.368s1.7-5.181,4.145-6.881c2.4-1.741,6.549-4.517,7.585-4.517s8.622-6.549,7.585-7.917c-.664-.914-.457-3.606-1.409-5.431l3.854.247,3.44,4.148L39.042,26l3.484,6.217H52.888l4.477,1.368-2.777,5.554L59.106,40.5,57.365,41.87S47,43.943,44.93,45.683s-3.44,8.29-3.44,8.29l-3.816,4.852,3.816,6.549.329,5.181h3.444l2.777,2.072,4.849-.7L56,69.851l-.373,8.29,6.011.373Z" transform="translate(-0.001 43.105)" fill="#edf1f7" stroke="rgba(17,39,71,0.06)" stroke-width="1"/>
        <path id="Trazado_7777" data-name="Trazado 7777" d="M38.213,79.558l-.7,6.922L32,89.588l-.7,4.145.332,8.957-4.477,8.29-2.4.373.661,12.435-4.145,3.44-4.643-.538c5.557-24.828,9.576-54.882,1.825-71.877l3.854-.83,2.78-3.44,2.777,2.072,2.072,6.549,2.736,1.412-2.072,3.44,2.072,8.622,1.409,7.253Z" transform="translate(35.399 107.68)" fill="#edf1f7" stroke="rgba(17,39,71,0.06)" stroke-width="1"/>
        <path id="Trazado_7778" data-name="Trazado 7778" d="M45.64,160.925c4.063.538,8.662,2.7,12.021,4.6-14.466.247-46.3-9.742-47.587-34.655-.207-3.647-.247-8.042-.125-12.973l10.033.122c-.125,2.861-.044,5.431.454,5.6a19.106,19.106,0,0,0,3.772.332l1.412,8.662s1.036,3.44,4.477,3.44,14.507,2.4,14.507,2.4l.041.789Z" transform="translate(21.05 251.189)" fill="#edf1f7" stroke="rgba(17,39,71,0.06)" stroke-width="1"/>
        <path id="Trazado_7779" data-name="Trazado 7779" d="M29.262,26.749c.955,1.825.745,4.517,1.409,5.432,1.036,1.365-6.549,7.917-7.585,7.917S17.9,42.875,15.5,44.615c-2.445,1.7-4.145,6.881-4.145,6.881L4.1,50.128l.329-5.513L2.361,39.434l-2.323-1c.247-5.222,1.907-15.96,6.8-19.068a18.482,18.482,0,0,0,2.777-2.2c3.024,1.784,8.371,5.14,8.622,6.342.373,1.741,4.145,1.036,8.29,1.409a3.1,3.1,0,0,1,2.736,1.825" transform="translate(0.081 36.588)" fill="#edf1f7" stroke="rgba(17,39,71,0.06)" stroke-width="1"/>
      </g>
    </g>
    <g id="Grupo_1304" data-name="Grupo 1304" transform="translate(86 -2008.5)">
      <g id="Elipse_4" data-name="Elipse 4" transform="translate(861 2457)" fill="#fff" stroke="#112648" stroke-width="1" opacity="0.186">
        <circle cx="6.5" cy="6.5" r="6.5" stroke="none"/>
        <circle cx="6.5" cy="6.5" r="6" fill="none"/>
      </g>
      <g id="Trazado_3893" data-name="Trazado 3893" transform="translate(863.203 2458.983)" fill="#112747" opacity="0.429">
        <path d="M 4.406860828399658 8.313720703125 C 2.252610921859741 8.313720703125 0.5000008344650269 6.561110973358154 0.5000008344650269 4.406860828399658 C 0.5000008344650269 2.252610921859741 2.252610921859741 0.5000008344650269 4.406860828399658 0.5000008344650269 C 6.561110973358154 0.5000008344650269 8.313720703125 2.252610921859741 8.313720703125 4.406860828399658 C 8.313720703125 6.561110973358154 6.561110973358154 8.313720703125 4.406860828399658 8.313720703125 Z" stroke="none"/>
        <path d="M 4.406860828399658 1.000000953674316 C 2.528310775756836 1.000000953674316 1.000000953674316 2.528310775756836 1.000000953674316 4.406860828399658 C 1.000000953674316 6.28541088104248 2.528310775756836 7.813720703125 4.406860828399658 7.813720703125 C 6.28541088104248 7.813720703125 7.813720703125 6.28541088104248 7.813720703125 4.406860828399658 C 7.813720703125 2.528310775756836 6.28541088104248 1.000000953674316 4.406860828399658 1.000000953674316 M 4.406860828399658 9.5367431640625e-07 C 6.840701103210449 9.5367431640625e-07 8.813720703125 1.973021030426025 8.813720703125 4.406860828399658 C 8.813720703125 6.840701103210449 6.840701103210449 8.813720703125 4.406860828399658 8.813720703125 C 1.973021030426025 8.813720703125 9.5367431640625e-07 6.840701103210449 9.5367431640625e-07 4.406860828399658 C 9.5367431640625e-07 1.973021030426025 1.973021030426025 9.5367431640625e-07 4.406860828399658 9.5367431640625e-07 Z" stroke="none" fill="#112648"/>
      </g>
      <circle id="Elipse_2" data-name="Elipse 2" cx="1.653" cy="1.653" r="1.653" transform="translate(865.848 2461.627)" fill="#112648"/>
    </g>
    <g id="Grupo_1307" data-name="Grupo 1307" transform="translate(103 -2034.5)">
      <g id="Elipse_4-2" data-name="Elipse 4" transform="translate(861 2457)" fill="#fff" stroke="#112648" stroke-width="1" opacity="0.186">
        <circle cx="6.5" cy="6.5" r="6.5" stroke="none"/>
        <circle cx="6.5" cy="6.5" r="6" fill="none"/>
      </g>
      <g id="Trazado_3893-2" data-name="Trazado 3893" transform="translate(863.203 2458.983)" fill="#112747" opacity="0.429">
        <path d="M 4.406860828399658 8.313720703125 C 2.252610921859741 8.313720703125 0.5000008344650269 6.561110973358154 0.5000008344650269 4.406860828399658 C 0.5000008344650269 2.252610921859741 2.252610921859741 0.5000008344650269 4.406860828399658 0.5000008344650269 C 6.561110973358154 0.5000008344650269 8.313720703125 2.252610921859741 8.313720703125 4.406860828399658 C 8.313720703125 6.561110973358154 6.561110973358154 8.313720703125 4.406860828399658 8.313720703125 Z" stroke="none"/>
        <path d="M 4.406860828399658 1.000000953674316 C 2.528310775756836 1.000000953674316 1.000000953674316 2.528310775756836 1.000000953674316 4.406860828399658 C 1.000000953674316 6.28541088104248 2.528310775756836 7.813720703125 4.406860828399658 7.813720703125 C 6.28541088104248 7.813720703125 7.813720703125 6.28541088104248 7.813720703125 4.406860828399658 C 7.813720703125 2.528310775756836 6.28541088104248 1.000000953674316 4.406860828399658 1.000000953674316 M 4.406860828399658 9.5367431640625e-07 C 6.840701103210449 9.5367431640625e-07 8.813720703125 1.973021030426025 8.813720703125 4.406860828399658 C 8.813720703125 6.840701103210449 6.840701103210449 8.813720703125 4.406860828399658 8.813720703125 C 1.973021030426025 8.813720703125 9.5367431640625e-07 6.840701103210449 9.5367431640625e-07 4.406860828399658 C 9.5367431640625e-07 1.973021030426025 1.973021030426025 9.5367431640625e-07 4.406860828399658 9.5367431640625e-07 Z" stroke="none" fill="#112648"/>
      </g>
      <circle id="Elipse_2-2" data-name="Elipse 2" cx="1.653" cy="1.653" r="1.653" transform="translate(865.848 2461.627)" fill="#112648"/>
    </g>
    <g id="Grupo_1308" data-name="Grupo 1308" transform="translate(122 -2169.5)">
      <g id="Elipse_4-3" data-name="Elipse 4" transform="translate(861 2457)" fill="#fff" stroke="#112648" stroke-width="1" opacity="0.186">
        <circle cx="6.5" cy="6.5" r="6.5" stroke="none"/>
        <circle cx="6.5" cy="6.5" r="6" fill="none"/>
      </g>
      <g id="Trazado_3893-3" data-name="Trazado 3893" transform="translate(863.203 2458.983)" fill="#112747" opacity="0.429">
        <path d="M 4.406860828399658 8.313720703125 C 2.252610921859741 8.313720703125 0.5000008344650269 6.561110973358154 0.5000008344650269 4.406860828399658 C 0.5000008344650269 2.252610921859741 2.252610921859741 0.5000008344650269 4.406860828399658 0.5000008344650269 C 6.561110973358154 0.5000008344650269 8.313720703125 2.252610921859741 8.313720703125 4.406860828399658 C 8.313720703125 6.561110973358154 6.561110973358154 8.313720703125 4.406860828399658 8.313720703125 Z" stroke="none"/>
        <path d="M 4.406860828399658 1.000000953674316 C 2.528310775756836 1.000000953674316 1.000000953674316 2.528310775756836 1.000000953674316 4.406860828399658 C 1.000000953674316 6.28541088104248 2.528310775756836 7.813720703125 4.406860828399658 7.813720703125 C 6.28541088104248 7.813720703125 7.813720703125 6.28541088104248 7.813720703125 4.406860828399658 C 7.813720703125 2.528310775756836 6.28541088104248 1.000000953674316 4.406860828399658 1.000000953674316 M 4.406860828399658 9.5367431640625e-07 C 6.840701103210449 9.5367431640625e-07 8.813720703125 1.973021030426025 8.813720703125 4.406860828399658 C 8.813720703125 6.840701103210449 6.840701103210449 8.813720703125 4.406860828399658 8.813720703125 C 1.973021030426025 8.813720703125 9.5367431640625e-07 6.840701103210449 9.5367431640625e-07 4.406860828399658 C 9.5367431640625e-07 1.973021030426025 1.973021030426025 9.5367431640625e-07 4.406860828399658 9.5367431640625e-07 Z" stroke="none" fill="#112648"/>
      </g>
      <circle id="Elipse_2-3" data-name="Elipse 2" cx="1.653" cy="1.653" r="1.653" transform="translate(865.848 2461.627)" fill="#112648"/>
    </g>
    <g id="Grupo_1310" data-name="Grupo 1310" transform="translate(57 -2124.5)">
      <g id="Elipse_4-4" data-name="Elipse 4" transform="translate(861 2457)" fill="#fff" stroke="#112648" stroke-width="1" opacity="0.186">
        <circle cx="6.5" cy="6.5" r="6.5" stroke="none"/>
        <circle cx="6.5" cy="6.5" r="6" fill="none"/>
      </g>
      <g id="Trazado_3893-4" data-name="Trazado 3893" transform="translate(863.203 2458.983)" fill="#112747" opacity="0.429">
        <path d="M 4.406860828399658 8.313720703125 C 2.252610921859741 8.313720703125 0.5000008344650269 6.561110973358154 0.5000008344650269 4.406860828399658 C 0.5000008344650269 2.252610921859741 2.252610921859741 0.5000008344650269 4.406860828399658 0.5000008344650269 C 6.561110973358154 0.5000008344650269 8.313720703125 2.252610921859741 8.313720703125 4.406860828399658 C 8.313720703125 6.561110973358154 6.561110973358154 8.313720703125 4.406860828399658 8.313720703125 Z" stroke="none"/>
        <path d="M 4.406860828399658 1.000000953674316 C 2.528310775756836 1.000000953674316 1.000000953674316 2.528310775756836 1.000000953674316 4.406860828399658 C 1.000000953674316 6.28541088104248 2.528310775756836 7.813720703125 4.406860828399658 7.813720703125 C 6.28541088104248 7.813720703125 7.813720703125 6.28541088104248 7.813720703125 4.406860828399658 C 7.813720703125 2.528310775756836 6.28541088104248 1.000000953674316 4.406860828399658 1.000000953674316 M 4.406860828399658 9.5367431640625e-07 C 6.840701103210449 9.5367431640625e-07 8.813720703125 1.973021030426025 8.813720703125 4.406860828399658 C 8.813720703125 6.840701103210449 6.840701103210449 8.813720703125 4.406860828399658 8.813720703125 C 1.973021030426025 8.813720703125 9.5367431640625e-07 6.840701103210449 9.5367431640625e-07 4.406860828399658 C 9.5367431640625e-07 1.973021030426025 1.973021030426025 9.5367431640625e-07 4.406860828399658 9.5367431640625e-07 Z" stroke="none" fill="#112648"/>
      </g>
      <circle id="Elipse_2-4" data-name="Elipse 2" cx="1.653" cy="1.653" r="1.653" transform="translate(865.848 2461.627)" fill="#112648"/>
    </g>
    <g id="Grupo_1311" data-name="Grupo 1311" transform="translate(86 -2096)">
      <g id="Elipse_4-5" data-name="Elipse 4" transform="translate(861 2457)" fill="#fff" stroke="#112648" stroke-width="1" opacity="0.186">
        <circle cx="6.5" cy="6.5" r="6.5" stroke="none"/>
        <circle cx="6.5" cy="6.5" r="6" fill="none"/>
      </g>
      <g id="Trazado_3893-5" data-name="Trazado 3893" transform="translate(863.203 2458.983)" fill="#112747" opacity="0.429">
        <path d="M 4.406860828399658 8.313720703125 C 2.252610921859741 8.313720703125 0.5000008344650269 6.561110973358154 0.5000008344650269 4.406860828399658 C 0.5000008344650269 2.252610921859741 2.252610921859741 0.5000008344650269 4.406860828399658 0.5000008344650269 C 6.561110973358154 0.5000008344650269 8.313720703125 2.252610921859741 8.313720703125 4.406860828399658 C 8.313720703125 6.561110973358154 6.561110973358154 8.313720703125 4.406860828399658 8.313720703125 Z" stroke="none"/>
        <path d="M 4.406860828399658 1.000000953674316 C 2.528310775756836 1.000000953674316 1.000000953674316 2.528310775756836 1.000000953674316 4.406860828399658 C 1.000000953674316 6.28541088104248 2.528310775756836 7.813720703125 4.406860828399658 7.813720703125 C 6.28541088104248 7.813720703125 7.813720703125 6.28541088104248 7.813720703125 4.406860828399658 C 7.813720703125 2.528310775756836 6.28541088104248 1.000000953674316 4.406860828399658 1.000000953674316 M 4.406860828399658 9.5367431640625e-07 C 6.840701103210449 9.5367431640625e-07 8.813720703125 1.973021030426025 8.813720703125 4.406860828399658 C 8.813720703125 6.840701103210449 6.840701103210449 8.813720703125 4.406860828399658 8.813720703125 C 1.973021030426025 8.813720703125 9.5367431640625e-07 6.840701103210449 9.5367431640625e-07 4.406860828399658 C 9.5367431640625e-07 1.973021030426025 1.973021030426025 9.5367431640625e-07 4.406860828399658 9.5367431640625e-07 Z" stroke="none" fill="#112648"/>
      </g>
      <circle id="Elipse_2-5" data-name="Elipse 2" cx="1.653" cy="1.653" r="1.653" transform="translate(865.848 2461.627)" fill="#112648"/>
    </g>
    <g id="Grupo_1312" data-name="Grupo 1312" transform="translate(13 -1989)">
      <g id="Elipse_4-6" data-name="Elipse 4" transform="translate(861 2457)" fill="#fff" stroke="#112648" stroke-width="1" opacity="0.186">
        <circle cx="6.5" cy="6.5" r="6.5" stroke="none"/>
        <circle cx="6.5" cy="6.5" r="6" fill="none"/>
      </g>
      <g id="Trazado_3893-6" data-name="Trazado 3893" transform="translate(863.203 2458.983)" fill="#112747" opacity="0.429">
        <path d="M 4.406860828399658 8.313720703125 C 2.252610921859741 8.313720703125 0.5000008344650269 6.561110973358154 0.5000008344650269 4.406860828399658 C 0.5000008344650269 2.252610921859741 2.252610921859741 0.5000008344650269 4.406860828399658 0.5000008344650269 C 6.561110973358154 0.5000008344650269 8.313720703125 2.252610921859741 8.313720703125 4.406860828399658 C 8.313720703125 6.561110973358154 6.561110973358154 8.313720703125 4.406860828399658 8.313720703125 Z" stroke="none"/>
        <path d="M 4.406860828399658 1.000000953674316 C 2.528310775756836 1.000000953674316 1.000000953674316 2.528310775756836 1.000000953674316 4.406860828399658 C 1.000000953674316 6.28541088104248 2.528310775756836 7.813720703125 4.406860828399658 7.813720703125 C 6.28541088104248 7.813720703125 7.813720703125 6.28541088104248 7.813720703125 4.406860828399658 C 7.813720703125 2.528310775756836 6.28541088104248 1.000000953674316 4.406860828399658 1.000000953674316 M 4.406860828399658 9.5367431640625e-07 C 6.840701103210449 9.5367431640625e-07 8.813720703125 1.973021030426025 8.813720703125 4.406860828399658 C 8.813720703125 6.840701103210449 6.840701103210449 8.813720703125 4.406860828399658 8.813720703125 C 1.973021030426025 8.813720703125 9.5367431640625e-07 6.840701103210449 9.5367431640625e-07 4.406860828399658 C 9.5367431640625e-07 1.973021030426025 1.973021030426025 9.5367431640625e-07 4.406860828399658 9.5367431640625e-07 Z" stroke="none" fill="#112648"/>
      </g>
      <circle id="Elipse_2-6" data-name="Elipse 2" cx="1.653" cy="1.653" r="1.653" transform="translate(865.848 2461.627)" fill="#112648"/>
    </g>
    <g id="Grupo_1313" data-name="Grupo 1313" transform="translate(6 -2156)">
      <g id="Elipse_4-7" data-name="Elipse 4" transform="translate(861 2457)" fill="#fff" stroke="#112648" stroke-width="1" opacity="0.186">
        <circle cx="6.5" cy="6.5" r="6.5" stroke="none"/>
        <circle cx="6.5" cy="6.5" r="6" fill="none"/>
      </g>
      <g id="Trazado_3893-7" data-name="Trazado 3893" transform="translate(863.203 2458.983)" fill="#112747" opacity="0.429">
        <path d="M 4.406860828399658 8.313720703125 C 2.252610921859741 8.313720703125 0.5000008344650269 6.561110973358154 0.5000008344650269 4.406860828399658 C 0.5000008344650269 2.252610921859741 2.252610921859741 0.5000008344650269 4.406860828399658 0.5000008344650269 C 6.561110973358154 0.5000008344650269 8.313720703125 2.252610921859741 8.313720703125 4.406860828399658 C 8.313720703125 6.561110973358154 6.561110973358154 8.313720703125 4.406860828399658 8.313720703125 Z" stroke="none"/>
        <path d="M 4.406860828399658 1.000000953674316 C 2.528310775756836 1.000000953674316 1.000000953674316 2.528310775756836 1.000000953674316 4.406860828399658 C 1.000000953674316 6.28541088104248 2.528310775756836 7.813720703125 4.406860828399658 7.813720703125 C 6.28541088104248 7.813720703125 7.813720703125 6.28541088104248 7.813720703125 4.406860828399658 C 7.813720703125 2.528310775756836 6.28541088104248 1.000000953674316 4.406860828399658 1.000000953674316 M 4.406860828399658 9.5367431640625e-07 C 6.840701103210449 9.5367431640625e-07 8.813720703125 1.973021030426025 8.813720703125 4.406860828399658 C 8.813720703125 6.840701103210449 6.840701103210449 8.813720703125 4.406860828399658 8.813720703125 C 1.973021030426025 8.813720703125 9.5367431640625e-07 6.840701103210449 9.5367431640625e-07 4.406860828399658 C 9.5367431640625e-07 1.973021030426025 1.973021030426025 9.5367431640625e-07 4.406860828399658 9.5367431640625e-07 Z" stroke="none" fill="#112648"/>
      </g>
      <circle id="Elipse_2-7" data-name="Elipse 2" cx="1.653" cy="1.653" r="1.653" transform="translate(865.848 2461.627)" fill="#112648"/>
    </g>
    <g id="Grupo_1316" data-name="Grupo 1316" transform="translate(6 -2241)">
      <g id="Elipse_4-8" data-name="Elipse 4" transform="translate(861 2457)" fill="#fff" stroke="#112648" stroke-width="1" opacity="0.186">
        <circle cx="6.5" cy="6.5" r="6.5" stroke="none"/>
        <circle cx="6.5" cy="6.5" r="6" fill="none"/>
      </g>
      <g id="Trazado_3893-8" data-name="Trazado 3893" transform="translate(863.203 2458.983)" fill="#112747" opacity="0.429">
        <path d="M 4.406860828399658 8.313720703125 C 2.252610921859741 8.313720703125 0.5000008344650269 6.561110973358154 0.5000008344650269 4.406860828399658 C 0.5000008344650269 2.252610921859741 2.252610921859741 0.5000008344650269 4.406860828399658 0.5000008344650269 C 6.561110973358154 0.5000008344650269 8.313720703125 2.252610921859741 8.313720703125 4.406860828399658 C 8.313720703125 6.561110973358154 6.561110973358154 8.313720703125 4.406860828399658 8.313720703125 Z" stroke="none"/>
        <path d="M 4.406860828399658 1.000000953674316 C 2.528310775756836 1.000000953674316 1.000000953674316 2.528310775756836 1.000000953674316 4.406860828399658 C 1.000000953674316 6.28541088104248 2.528310775756836 7.813720703125 4.406860828399658 7.813720703125 C 6.28541088104248 7.813720703125 7.813720703125 6.28541088104248 7.813720703125 4.406860828399658 C 7.813720703125 2.528310775756836 6.28541088104248 1.000000953674316 4.406860828399658 1.000000953674316 M 4.406860828399658 9.5367431640625e-07 C 6.840701103210449 9.5367431640625e-07 8.813720703125 1.973021030426025 8.813720703125 4.406860828399658 C 8.813720703125 6.840701103210449 6.840701103210449 8.813720703125 4.406860828399658 8.813720703125 C 1.973021030426025 8.813720703125 9.5367431640625e-07 6.840701103210449 9.5367431640625e-07 4.406860828399658 C 9.5367431640625e-07 1.973021030426025 1.973021030426025 9.5367431640625e-07 4.406860828399658 9.5367431640625e-07 Z" stroke="none" fill="#112648"/>
      </g>
      <circle id="Elipse_2-8" data-name="Elipse 2" cx="1.653" cy="1.653" r="1.653" transform="translate(865.848 2461.627)" fill="#112648"/>
    </g>
    <g id="Grupo_1317" data-name="Grupo 1317" transform="translate(-17 -2212)">
      <g id="Elipse_4-9" data-name="Elipse 4" transform="translate(861 2457)" fill="#fff" stroke="#112648" stroke-width="1" opacity="0.186">
        <circle cx="6.5" cy="6.5" r="6.5" stroke="none"/>
        <circle cx="6.5" cy="6.5" r="6" fill="none"/>
      </g>
      <g id="Trazado_3893-9" data-name="Trazado 3893" transform="translate(863.203 2458.983)" fill="#112747" opacity="0.429">
        <path d="M 4.406860828399658 8.313720703125 C 2.252610921859741 8.313720703125 0.5000008344650269 6.561110973358154 0.5000008344650269 4.406860828399658 C 0.5000008344650269 2.252610921859741 2.252610921859741 0.5000008344650269 4.406860828399658 0.5000008344650269 C 6.561110973358154 0.5000008344650269 8.313720703125 2.252610921859741 8.313720703125 4.406860828399658 C 8.313720703125 6.561110973358154 6.561110973358154 8.313720703125 4.406860828399658 8.313720703125 Z" stroke="none"/>
        <path d="M 4.406860828399658 1.000000953674316 C 2.528310775756836 1.000000953674316 1.000000953674316 2.528310775756836 1.000000953674316 4.406860828399658 C 1.000000953674316 6.28541088104248 2.528310775756836 7.813720703125 4.406860828399658 7.813720703125 C 6.28541088104248 7.813720703125 7.813720703125 6.28541088104248 7.813720703125 4.406860828399658 C 7.813720703125 2.528310775756836 6.28541088104248 1.000000953674316 4.406860828399658 1.000000953674316 M 4.406860828399658 9.5367431640625e-07 C 6.840701103210449 9.5367431640625e-07 8.813720703125 1.973021030426025 8.813720703125 4.406860828399658 C 8.813720703125 6.840701103210449 6.840701103210449 8.813720703125 4.406860828399658 8.813720703125 C 1.973021030426025 8.813720703125 9.5367431640625e-07 6.840701103210449 9.5367431640625e-07 4.406860828399658 C 9.5367431640625e-07 1.973021030426025 1.973021030426025 9.5367431640625e-07 4.406860828399658 9.5367431640625e-07 Z" stroke="none" fill="#112648"/>
      </g>
      <circle id="Elipse_2-9" data-name="Elipse 2" cx="1.653" cy="1.653" r="1.653" transform="translate(865.848 2461.627)" fill="#112648"/>
    </g>
    <g id="Grupo_1315" data-name="Grupo 1315" transform="translate(50.5 -2261.5)">
      <g id="Elipse_4-10" data-name="Elipse 4" transform="translate(861 2457)" fill="#fff" stroke="#112648" stroke-width="1" opacity="0.186">
        <circle cx="6.5" cy="6.5" r="6.5" stroke="none"/>
        <circle cx="6.5" cy="6.5" r="6" fill="none"/>
      </g>
      <g id="Trazado_3893-10" data-name="Trazado 3893" transform="translate(863.203 2458.983)" fill="#112747" opacity="0.429">
        <path d="M 4.406860828399658 8.313720703125 C 2.252610921859741 8.313720703125 0.5000008344650269 6.561110973358154 0.5000008344650269 4.406860828399658 C 0.5000008344650269 2.252610921859741 2.252610921859741 0.5000008344650269 4.406860828399658 0.5000008344650269 C 6.561110973358154 0.5000008344650269 8.313720703125 2.252610921859741 8.313720703125 4.406860828399658 C 8.313720703125 6.561110973358154 6.561110973358154 8.313720703125 4.406860828399658 8.313720703125 Z" stroke="none"/>
        <path d="M 4.406860828399658 1.000000953674316 C 2.528310775756836 1.000000953674316 1.000000953674316 2.528310775756836 1.000000953674316 4.406860828399658 C 1.000000953674316 6.28541088104248 2.528310775756836 7.813720703125 4.406860828399658 7.813720703125 C 6.28541088104248 7.813720703125 7.813720703125 6.28541088104248 7.813720703125 4.406860828399658 C 7.813720703125 2.528310775756836 6.28541088104248 1.000000953674316 4.406860828399658 1.000000953674316 M 4.406860828399658 9.5367431640625e-07 C 6.840701103210449 9.5367431640625e-07 8.813720703125 1.973021030426025 8.813720703125 4.406860828399658 C 8.813720703125 6.840701103210449 6.840701103210449 8.813720703125 4.406860828399658 8.813720703125 C 1.973021030426025 8.813720703125 9.5367431640625e-07 6.840701103210449 9.5367431640625e-07 4.406860828399658 C 9.5367431640625e-07 1.973021030426025 1.973021030426025 9.5367431640625e-07 4.406860828399658 9.5367431640625e-07 Z" stroke="none" fill="#112648"/>
      </g>
      <circle id="Elipse_2-10" data-name="Elipse 2" cx="1.653" cy="1.653" r="1.653" transform="translate(865.848 2461.627)" fill="#112648"/>
    </g>
  </g>
</svg>
