<svg id="linkedin-svgrepo-com-2" xmlns="http://www.w3.org/2000/svg" width="15.301" height="14.046" viewBox="0 0 15.301 14.046">
  <rect id="Rectángulo_39" data-name="Rectángulo 39" width="2.981" height="9.542" transform="translate(0.394 4.505)" fill="#112747"/>
  <path id="Trazado_25" data-name="Trazado 25" d="M-269.178,283.9A1.672,1.672,0,0,0-271,285.555a1.655,1.655,0,0,0,1.781,1.655h.024a1.663,1.663,0,0,0,1.816-1.655A1.664,1.664,0,0,0-269.178,283.9Z" transform="translate(271 -283.9)" fill="#112747"/>
  <path id="Trazado_26" data-name="Trazado 26" d="M-177.773,357.8a3.05,3.05,0,0,0-2.975,1.589v-1.5H-184.1c.042.795,0,9.542,0,9.542h3.352v-5.156a2.256,2.256,0,0,1,.072-.783,1.7,1.7,0,0,1,1.613-1.171c1.165,0,1.691.884,1.691,2.175v4.935h3.382v-5.306C-173.991,359.174-175.652,357.8-177.773,357.8Z" transform="translate(189.292 -353.385)" fill="#112747"/>
</svg>
