<svg xmlns="http://www.w3.org/2000/svg" xmlns:xlink="http://www.w3.org/1999/xlink" width="37.188" height="23.759" viewBox="0 0 37.188 23.759">
  <defs>
    <clipPath id="clip-path">
      <rect id="Rectángulo_780" data-name="Rectángulo 780" width="37.188" height="23.759" fill="none"/>
    </clipPath>
  </defs>
  <g id="Grupo_1465" data-name="Grupo 1465" transform="translate(0 0)">
    <g id="Grupo_1448" data-name="Grupo 1448" transform="translate(0 0)" clip-path="url(#clip-path)">
      <path id="Trazado_8273" data-name="Trazado 8273" d="M13.546,9.719H11.793V3.94a.5.5,0,0,1,.5-.5H27.065a.5.5,0,0,1,.5.5V7.257H25.816V5.19H13.546Z" transform="translate(6.198 1.806)" fill="#12284c"/>
      <rect id="Rectángulo_779" data-name="Rectángulo 779" width="1.753" height="5.651" transform="translate(25.039 5.985)" fill="#12284c"/>
      <path id="Trazado_8274" data-name="Trazado 8274" d="M22.849,6.4H21.1V1.753h-5.24V6.4H14.1V.5a.5.5,0,0,1,.5-.5h7.739a.5.5,0,0,1,.5.5Z" transform="translate(7.412 0)" fill="#12284c"/>
      <path id="Trazado_8275" data-name="Trazado 8275" d="M17.971,20.731c-9.632,0-13.1-1.9-13.242-1.979L4.467,18.6.025,7.907a.329.329,0,0,1,.3-.455H27.585l1.544-1.544a.5.5,0,0,1,.355-.148h7.233a.471.471,0,0,1,.42.683l-6.2,12.146-.189.127c-.122.082-3.109,2.014-12.778,2.014M5.84,17.341c.923.392,4.455,1.637,12.131,1.637,7.745,0,10.892-1.266,11.632-1.628l5.019-9.837H30L28.311,9.206H2.462Z" transform="translate(0 3.027)" fill="#12284c"/>
      <path id="Trazado_8276" data-name="Trazado 8276" d="M10.773,11.565H9.02V1.77H5.5V5.475l-1.753.691V.52a.5.5,0,0,1,.5-.5h6.014a.5.5,0,0,1,.5.5Z" transform="translate(1.972 0.008)" fill="#12284c"/>
      <path id="Trazado_8277" data-name="Trazado 8277" d="M3.214,10.385H1.461V4.658a.5.5,0,0,1,.4-.493l9.01-1.892.36,1.715L3.214,5.671Z" transform="translate(0.768 1.195)" fill="#12284c"/>
    </g>
  </g>
</svg>
