<svg xmlns="http://www.w3.org/2000/svg" width="26.902" height="26.939" viewBox="0 0 26.902 26.939">
  <path id="captive_portal_24dp_5F6368_FILL0_wght200_GRAD0_opsz24" d="M145.88-813.061l-5.117-5.117v4.355h-1.483v-6.9h6.9v1.483h-4.392l5.117,5.117Zm-12.532-.243a13,13,0,0,1-5.206-1.051,13.481,13.481,0,0,1-4.238-2.852,13.475,13.475,0,0,1-2.853-4.237,12.988,12.988,0,0,1-1.051-5.2,13.01,13.01,0,0,1,1.051-5.206,13.491,13.491,0,0,1,2.852-4.24,13.47,13.47,0,0,1,4.237-2.855,12.981,12.981,0,0,1,5.2-1.052,13.005,13.005,0,0,1,5.206,1.051,13.488,13.488,0,0,1,4.24,2.853,13.475,13.475,0,0,1,2.855,4.238,12.99,12.99,0,0,1,1.052,5.206q0,.6-.053,1.2t-.158,1.2h-1.529a11.624,11.624,0,0,0,.192-1.2,11.243,11.243,0,0,0,.064-1.2,12.729,12.729,0,0,0-.121-1.749,10.5,10.5,0,0,0-.392-1.73h-5.984a15.232,15.232,0,0,1,.238,1.73q.07.875.07,1.749,0,.6-.034,1.2t-.1,1.2H137.4q.069-.6.1-1.2t.034-1.2q0-.875-.07-1.749a15.228,15.228,0,0,0-.238-1.73h-7.769a15.219,15.219,0,0,0-.238,1.733q-.07.877-.07,1.754t.07,1.747a15.237,15.237,0,0,0,.238,1.726H135.4v1.483h-5.584a21.908,21.908,0,0,0,1.4,3.657,15.637,15.637,0,0,0,2.134,3.257,11.241,11.241,0,0,0,1.2-.064q.6-.064,1.2-.138v1.472q-.6.074-1.2.138A11.225,11.225,0,0,1,133.348-813.3ZM122-823.172h5.984a15.219,15.219,0,0,1-.238-1.733q-.07-.877-.07-1.754t.07-1.747a15.247,15.247,0,0,1,.238-1.726H122a10.489,10.489,0,0,0-.392,1.733,12.8,12.8,0,0,0-.121,1.754,12.643,12.643,0,0,0,.121,1.747A10.513,10.513,0,0,0,122-823.172Zm.6-8.443h5.674a19.114,19.114,0,0,1,1.2-3.558,14.631,14.631,0,0,1,1.981-3.19,11.215,11.215,0,0,0-5.282,2.235A11.839,11.839,0,0,0,122.6-831.615Zm8.859,16.674a18.265,18.265,0,0,1-1.91-3.219,21.048,21.048,0,0,1-1.262-3.529H122.6a11.836,11.836,0,0,0,3.591,4.485A11.532,11.532,0,0,0,131.46-814.941Zm-1.643-16.674h7.062a17.3,17.3,0,0,0-1.4-3.627,21.278,21.278,0,0,0-2.13-3.286,17.537,17.537,0,0,0-2.139,3.256A18.341,18.341,0,0,0,129.817-831.615Zm8.591,0H144.1a11.956,11.956,0,0,0-3.577-4.528,10.916,10.916,0,0,0-5.282-2.221,16.306,16.306,0,0,1,1.867,3.233,35.316,35.316,0,0,1,1.3,3.515Z" transform="translate(-120 840)" fill="#112648"/>
</svg>
