<svg id="Logo_TCC" data-name="Logo TCC" xmlns="http://www.w3.org/2000/svg" width="61.002" height="31.801" viewBox="0 0 61.002 31.801">
  <path id="Trazado_8014" data-name="Trazado 8014" d="M118.593,72.115V57.047H113.52V53.43h14.121v3.617h-5.073V72.115H118.59Z" transform="translate(-102.158 -53.028)" fill="#0a345e"/>
  <path id="Trazado_8015" data-name="Trazado 8015" d="M184.928,71.264a10.523,10.523,0,0,1-5.1-1.194,8.536,8.536,0,0,1-3.43-3.37,10.286,10.286,0,0,1-1.228-5.138,10.408,10.408,0,0,1,.722-3.937,9.083,9.083,0,0,1,5.16-5.131,10.569,10.569,0,0,1,3.932-.715,11.3,11.3,0,0,1,3.845.574,9.456,9.456,0,0,1,2.83,1.616l-2,3.244a5.159,5.159,0,0,0-1.928-1.194,7.414,7.414,0,0,0-2.476-.392,7.218,7.218,0,0,0-2.49.407,5.056,5.056,0,0,0-1.868,1.182,5.186,5.186,0,0,0-1.175,1.863,6.908,6.908,0,0,0-.407,2.435,6.494,6.494,0,0,0,.727,3.183,4.945,4.945,0,0,0,2.081,2.023,6.9,6.9,0,0,0,3.237.707,8.415,8.415,0,0,0,2.556-.4,7.7,7.7,0,0,0,2.4-1.282l1.814,3.324a10.525,10.525,0,0,1-3.1,1.609,12.929,12.929,0,0,1-4.1.594Z" transform="translate(-148.873 -51.778)" fill="#0a345e"/>
  <path id="Trazado_8016" data-name="Trazado 8016" d="M258.208,71.264a10.523,10.523,0,0,1-5.1-1.194,8.536,8.536,0,0,1-3.43-3.37,10.286,10.286,0,0,1-1.228-5.138,10.408,10.408,0,0,1,.722-3.937,9.083,9.083,0,0,1,5.16-5.131,10.569,10.569,0,0,1,3.932-.715,11.3,11.3,0,0,1,3.845.574,9.456,9.456,0,0,1,2.83,1.616l-2,3.244a5.159,5.159,0,0,0-1.928-1.194,7.414,7.414,0,0,0-2.476-.392,7.218,7.218,0,0,0-2.49.407,5.056,5.056,0,0,0-1.868,1.182A5.186,5.186,0,0,0,253,59.079a6.908,6.908,0,0,0-.407,2.435,6.494,6.494,0,0,0,.727,3.183A4.945,4.945,0,0,0,255.4,66.72a6.9,6.9,0,0,0,3.236.707,8.415,8.415,0,0,0,2.556-.4,7.7,7.7,0,0,0,2.4-1.282L265.4,69.07a10.525,10.525,0,0,1-3.1,1.609,12.929,12.929,0,0,1-4.1.594Z" transform="translate(-204.401 -51.778)" fill="#0a345e"/>
  <ellipse id="Elipse_17" data-name="Elipse 17" cx="2.621" cy="2.621" rx="2.621" ry="2.621" transform="translate(0 13.845)" fill="#0a345e"/>
  <ellipse id="Elipse_18" data-name="Elipse 18" cx="2.621" cy="2.621" rx="2.621" ry="2.621" transform="translate(0 6.921)" fill="#00b2e7"/>
  <ellipse id="Elipse_19" data-name="Elipse 19" cx="2.621" cy="2.621" rx="2.621" ry="2.621" transform="translate(0 0)" fill="#dd2417"/>
  <g id="Grupo_1365" data-name="Grupo 1365" transform="translate(2.621 27.135)">
    <path id="Trazado_8017" data-name="Trazado 8017" d="M77.44,168.647V164.18h.833v3.706h1.894v.758H77.44Z" transform="translate(-77.44 -164.083)" fill="#0a345e"/>
    <path id="Trazado_8018" data-name="Trazado 8018" d="M106.19,168.439a2.42,2.42,0,0,1-.938-.177,2.3,2.3,0,0,1-.749-.492,2.266,2.266,0,0,1-.5-.741,2.349,2.349,0,0,1-.177-.918,2.373,2.373,0,0,1,.177-.923,2.253,2.253,0,0,1,.5-.741,2.311,2.311,0,0,1,.749-.492,2.483,2.483,0,0,1,.938-.174,2.43,2.43,0,0,1,.938.179,2.272,2.272,0,0,1,.749.5,2.314,2.314,0,0,1,.676,1.652,2.368,2.368,0,0,1-.179.918,2.292,2.292,0,0,1-.5.741,2.247,2.247,0,0,1-.749.492,2.437,2.437,0,0,1-.938.177Zm0-.782a1.574,1.574,0,0,0,.591-.109,1.4,1.4,0,0,0,.475-.312,1.42,1.42,0,0,0,.315-.487,1.715,1.715,0,0,0,.114-.637,1.636,1.636,0,0,0-.2-.816,1.4,1.4,0,0,0-.535-.54,1.513,1.513,0,0,0-.763-.191,1.549,1.549,0,0,0-.586.109,1.39,1.39,0,0,0-.79.8,1.724,1.724,0,0,0-.114.637,1.635,1.635,0,0,0,.2.816,1.4,1.4,0,0,0,.535.54,1.507,1.507,0,0,0,.758.191Z" transform="translate(-97.437 -163.78)" fill="#0a345e"/>
    <path id="Trazado_8019" data-name="Trazado 8019" d="M141.232,168.439a2.874,2.874,0,0,1-.981-.162,2.358,2.358,0,0,1-.8-.465,2.122,2.122,0,0,1-.533-.732,2.331,2.331,0,0,1-.191-.964,2.418,2.418,0,0,1,.184-.964,2.129,2.129,0,0,1,.516-.736,2.3,2.3,0,0,1,.773-.47,2.769,2.769,0,0,1,.964-.165,3.15,3.15,0,0,1,.492.039,2.7,2.7,0,0,1,.5.128,2.152,2.152,0,0,1,.482.245l-.356.647a1.9,1.9,0,0,0-.511-.228,2.1,2.1,0,0,0-.569-.075,1.963,1.963,0,0,0-.673.109,1.422,1.422,0,0,0-.511.315,1.387,1.387,0,0,0-.322.5,1.8,1.8,0,0,0-.111.657,1.652,1.652,0,0,0,.218.872,1.4,1.4,0,0,0,.6.54,2,2,0,0,0,.87.184,1.872,1.872,0,0,0,.419-.044,1.754,1.754,0,0,0,.31-.1v-.984h-.979v-.676h1.72v2.151a2.057,2.057,0,0,1-.451.2,3.429,3.429,0,0,1-.55.128,3.386,3.386,0,0,1-.511.044Z" transform="translate(-123.882 -163.78)" fill="#0a345e"/>
    <path id="Trazado_8020" data-name="Trazado 8020" d="M172.74,168.647V164.18h.833v4.467Z" transform="translate(-149.653 -164.083)" fill="#0a345e"/>
    <path id="Trazado_8021" data-name="Trazado 8021" d="M194.711,168.469a3.185,3.185,0,0,1-.933-.138,2.2,2.2,0,0,1-.768-.4l.4-.627a1.477,1.477,0,0,0,.366.242,2.15,2.15,0,0,0,.455.157,2.176,2.176,0,0,0,.48.056,1.241,1.241,0,0,0,.647-.148.473.473,0,0,0,.247-.429.465.465,0,0,0-.17-.366,1.745,1.745,0,0,0-.637-.281l-.431-.124a2.051,2.051,0,0,1-.947-.5,1.071,1.071,0,0,1-.293-.763,1.174,1.174,0,0,1,.124-.54,1.275,1.275,0,0,1,.344-.422,1.62,1.62,0,0,1,.526-.276,2.128,2.128,0,0,1,.661-.1,2.676,2.676,0,0,1,.872.138,1.842,1.842,0,0,1,.657.371l-.412.606a1.364,1.364,0,0,0-.315-.216,1.843,1.843,0,0,0-.392-.143,1.8,1.8,0,0,0-.424-.051,1.285,1.285,0,0,0-.441.07.64.64,0,0,0-.293.2.491.491,0,0,0-.1.317.392.392,0,0,0,.073.24.632.632,0,0,0,.247.184,3.338,3.338,0,0,0,.485.177l.453.133a2.17,2.17,0,0,1,.935.484,1.039,1.039,0,0,1,.293.768,1.273,1.273,0,0,1-.2.715,1.358,1.358,0,0,1-.586.484,2.174,2.174,0,0,1-.911.174Z" transform="translate(-165.013 -163.81)" fill="#0a345e"/>
    <path id="Trazado_8022" data-name="Trazado 8022" d="M223.115,168.655v-3.706H221.88v-.758h3.3v.758h-1.235v3.706h-.836Z" transform="translate(-186.889 -164.091)" fill="#0a345e"/>
    <path id="Trazado_8023" data-name="Trazado 8023" d="M251.53,168.647V164.18h.833v4.467Z" transform="translate(-209.356 -164.083)" fill="#0a345e"/>
    <path id="Trazado_8024" data-name="Trazado 8024" d="M273.851,168.446a2.486,2.486,0,0,1-1.216-.286,2.028,2.028,0,0,1-.814-.809,2.7,2.7,0,0,1-.119-2.166,2.159,2.159,0,0,1,1.226-1.226,2.5,2.5,0,0,1,.935-.17,2.742,2.742,0,0,1,.9.133,2.106,2.106,0,0,1,.664.375l-.426.678a1.317,1.317,0,0,0-.475-.288,1.832,1.832,0,0,0-.6-.094,1.8,1.8,0,0,0-.635.107,1.333,1.333,0,0,0-.48.305,1.319,1.319,0,0,0-.3.48,1.785,1.785,0,0,0-.1.632,1.66,1.66,0,0,0,.189.821,1.276,1.276,0,0,0,.535.521,1.758,1.758,0,0,0,.824.182,2.054,2.054,0,0,0,.632-.1,1.832,1.832,0,0,0,.579-.315l.385.7a2.381,2.381,0,0,1-.739.385,3.045,3.045,0,0,1-.954.138Z" transform="translate(-224.511 -163.788)" fill="#0a345e"/>
    <path id="Trazado_8025" data-name="Trazado 8025" d="M304.961,168.469a3.186,3.186,0,0,1-.933-.138,2.2,2.2,0,0,1-.768-.4l.4-.627a1.478,1.478,0,0,0,.366.242,2.151,2.151,0,0,0,.455.157,2.176,2.176,0,0,0,.48.056,1.241,1.241,0,0,0,.647-.148.473.473,0,0,0,.247-.429.465.465,0,0,0-.17-.366,1.745,1.745,0,0,0-.637-.281l-.431-.124a2.051,2.051,0,0,1-.947-.5,1.071,1.071,0,0,1-.293-.763,1.174,1.174,0,0,1,.124-.54,1.275,1.275,0,0,1,.344-.422,1.62,1.62,0,0,1,.526-.276,2.128,2.128,0,0,1,.661-.1,2.676,2.676,0,0,1,.872.138,1.842,1.842,0,0,1,.657.371l-.412.606a1.364,1.364,0,0,0-.315-.216,1.844,1.844,0,0,0-.392-.143,1.8,1.8,0,0,0-.424-.051,1.286,1.286,0,0,0-.441.07.639.639,0,0,0-.293.2.49.49,0,0,0-.1.317.391.391,0,0,0,.073.24.631.631,0,0,0,.247.184,3.337,3.337,0,0,0,.485.177l.453.133a2.17,2.17,0,0,1,.935.484,1.039,1.039,0,0,1,.293.768,1.273,1.273,0,0,1-.2.715,1.358,1.358,0,0,1-.586.484,2.174,2.174,0,0,1-.911.174Z" transform="translate(-248.554 -163.81)" fill="#0a345e"/>
  </g>
</svg>
